<svg width="621" height="469" viewBox="0 0 621 469" fill="none" xmlns="http://www.w3.org/2000/svg">
<g clip-path="url(#clip0_8_2)">
<path d="M565.799 240.873C561.981 299.939 516.675 356.335 455.314 359.833C384.837 365.232 320.147 326.583 249.944 326.174C214.146 323.105 180.574 336.812 145.688 341.238C66.895 344.13 54.891 251.537 69.585 191.855C131.558 -89.514 570.09 -51.232 565.799 240.873Z" fill="#C2AEFF"/>
<path d="M564.287 469H510.348L490.51 374.414L476.754 469H420.246L428.021 398.584L432.916 354.283L435.867 327.571L512.532 307.814L547.142 309.722L564.287 469Z" fill="#6BB2AB"/>
<path d="M487.159 367.377C478.009 362.008 468.86 356.639 459.71 351.271C457.128 349.756 454.545 348.241 451.963 346.725C451.468 346.434 451.104 347.249 451.594 347.537C460.744 352.906 469.893 358.274 479.043 363.643C481.625 365.158 484.208 366.673 486.79 368.189C487.285 368.48 487.649 367.665 487.159 367.377Z" fill="#389688"/>
<path d="M485.504 369.411C478.954 367.742 472.404 366.074 465.854 364.405C465.298 364.263 465.162 365.145 465.715 365.286C472.265 366.955 478.815 368.623 485.365 370.292C485.921 370.433 486.056 369.552 485.504 369.411Z" fill="#389688"/>
<path d="M550.949 403.67C548.727 384.318 546.506 364.966 544.284 345.615C543.026 334.656 541.768 323.696 540.509 312.737C540.444 312.168 539.557 312.265 539.623 312.837L546.322 371.189C548.544 390.541 550.765 409.893 552.987 429.244C554.245 440.203 555.503 451.163 556.762 462.122C556.827 462.691 557.714 462.594 557.648 462.022L550.949 403.67Z" fill="#389688"/>
<path d="M620.322 121.601C619.486 129.295 617.392 136.802 615.314 144.26C613.397 151.117 611.488 157.975 609.58 164.833L588.002 164.301C585.739 162.908 583.847 160.855 582.403 158.6C580.351 155.408 579.059 151.802 577.75 148.246C576.441 144.691 575.064 141.101 572.86 138.019C572.024 136.845 571.053 135.705 570.673 134.32C570.285 132.927 570.732 131.17 572.058 130.613C573.494 130.013 575.056 131.052 576.23 132.082C580.461 135.789 584.126 140.164 587.04 144.986L587.099 144.952C587.504 132.588 587.91 120.224 588.315 107.861C588.34 107.168 588.366 106.451 588.644 105.809C588.914 105.159 589.497 104.601 590.19 104.559C591.482 104.483 592.183 106.02 592.495 107.278C594.471 115.242 595.527 123.442 595.654 131.651C596.245 123.028 597.115 114.414 598.247 105.842C598.492 104.043 598.788 102.126 600.012 100.783C600.477 100.268 601.127 99.846 601.819 99.913C603.111 100.04 603.609 101.644 603.778 102.936C605.003 112.42 605.155 122.039 604.226 131.557L604.268 131.565C605.822 123.449 607.384 115.325 608.938 107.209C609.107 106.348 609.335 105.393 610.07 104.929C611.261 104.177 612.815 105.258 613.49 106.491C614.664 108.67 614.52 111.296 614.259 113.762C613.516 120.788 612.029 127.722 610.551 134.639C612.35 129.682 614.225 124.741 616.159 119.843C616.547 118.846 617.13 117.706 618.194 117.58C619.064 117.47 619.866 118.171 620.179 118.999C620.483 119.819 620.415 120.723 620.322 121.601Z" fill="#E88846"/>
<path d="M432.916 354.283L428.021 398.585C423.661 397.283 419.284 391.212 417.955 387.699C415.191 381.208 415.913 374.031 415.878 367.122C416.217 362.316 414.46 356.557 416.877 352.251C420.541 349.594 425.623 352.117 429.555 353.036C430.749 353.284 431.899 353.703 432.916 354.283Z" fill="#E88846"/>
<path d="M608.946 163.675L586.167 163.113L584.901 163.077L579.783 183.485C579.783 183.485 567.39 155.481 557.146 143.088C546.902 130.695 512.532 131.025 512.532 131.025L466.313 140.476C466.313 140.476 434.502 159.208 425.203 165.689C415.913 172.162 411.081 173.526 409.092 209.34C407.113 245.154 410.581 355.824 410.581 355.824C410.581 355.824 418.086 362.474 432.583 357.268L435.49 330.947C435.49 330.947 478.91 350.385 508.688 313.074C508.688 313.074 537.851 312.699 547.141 309.722L545.162 256.933L547.141 218.266C547.141 218.266 566.729 259.536 590.025 258.663C613.321 257.798 611.093 204.26 611.583 163.738L608.946 163.675ZM441.314 284.197L442.143 236.775L446.271 260.072L441.314 284.197Z" fill="#AF3737"/>
<path d="M512.532 131.026C512.532 131.026 511.979 135.849 510.767 141.618H510.758C509.358 148.233 507.085 156.097 503.777 159.36L499.81 157.63L492.455 172.412L478.163 162.498L474.445 165.725C474.445 165.725 463.827 160.269 458.994 144.907C458.994 144.907 459.997 138.937 467.776 138.676L467.897 142.954L487.417 151.923L503.737 134.981L502.257 130.396C502.257 130.396 502.257 130.396 502.266 130.396C502.488 130.291 507.156 128.655 512.532 131.026Z" fill="#F4E9DC"/>
<path d="M611.391 132.661C605.905 130.889 600.2 129.956 594.435 129.885C593.863 129.878 593.966 130.764 594.534 130.771C600.125 130.84 605.701 131.755 611.022 133.473C611.563 133.648 611.936 132.837 611.391 132.661Z" fill="#C4532C"/>
<path d="M605.359 138.969C601.64 141.029 598.248 143.62 595.264 146.647C594.86 147.056 595.554 147.617 595.954 147.212C598.883 144.241 602.235 141.712 605.883 139.691C606.384 139.412 605.855 138.694 605.359 138.969Z" fill="#C4532C"/>
<path d="M439.863 197.862L439.225 186.406C439.193 185.833 438.307 185.933 438.339 186.506C439.093 200.038 439.846 213.57 440.6 227.102C440.813 230.921 441.025 234.739 441.238 238.558C441.27 239.131 442.156 239.031 442.124 238.458C441.371 224.926 440.617 211.394 439.863 197.862Z" fill="#8E2323"/>
<path d="M547.409 216.717C545.137 209.79 542.633 202.94 539.895 196.184C539.109 194.244 538.303 192.312 537.48 190.388C537.255 189.862 536.423 190.182 536.649 190.712C539.517 197.414 542.159 204.212 544.564 211.094C545.255 213.07 545.925 215.053 546.577 217.041C546.757 217.586 547.587 217.261 547.409 216.717Z" fill="#8E2323"/>
<path d="M543.97 216.384C539.859 211.301 535.747 206.218 531.636 201.135C531.276 200.69 530.553 201.212 530.915 201.659C535.026 206.742 539.137 211.825 543.249 216.908C543.609 217.353 544.332 216.831 543.97 216.384Z" fill="#8E2323"/>
<path d="M578.841 184.565C576.649 192.634 574.457 200.702 572.264 208.771C571.643 211.056 571.022 213.341 570.402 215.626C570.252 216.179 571.134 216.314 571.283 215.765C573.475 207.697 575.668 199.628 577.86 191.56C578.481 189.275 579.102 186.99 579.722 184.705C579.871 184.151 578.99 184.016 578.841 184.565Z" fill="#8E2323"/>
<path d="M528.416 293.119C522.342 299.49 516.267 305.862 510.193 312.233C509.796 312.649 510.489 313.211 510.883 312.798C516.957 306.427 523.032 300.055 529.106 293.684C529.503 293.268 528.81 292.706 528.416 293.119Z" fill="#8E2323"/>
<path d="M517.481 297.201C510.702 305.049 503.792 312.904 495.548 319.263C487.726 325.297 478.644 329.985 468.743 331.226C462.99 331.947 457.078 331.502 451.592 329.57C451.054 329.38 450.682 330.191 451.224 330.382C461.026 333.835 471.863 332.686 481.333 328.729C490.712 324.81 498.775 318.373 505.91 311.234C510.204 306.938 514.203 302.361 518.172 297.766C518.547 297.331 517.856 296.768 517.481 297.201Z" fill="#8E2323"/>
<path d="M440.424 285.369C438.601 291.467 437.148 297.674 436.089 303.951C435.565 307.054 435.136 310.172 434.803 313.301C434.49 316.243 434.191 319.215 434.154 322.175C434.118 325.079 434.509 328.097 436.289 330.488C436.632 330.949 437.354 330.425 437.01 329.964C435.434 327.847 435.053 325.197 435.038 322.62C435.02 319.704 435.338 316.764 435.638 313.866C436.272 307.749 437.273 301.67 438.632 295.673C439.407 292.255 440.3 288.866 441.304 285.509C441.469 284.961 440.587 284.827 440.424 285.369Z" fill="#8E2323"/>
<path d="M510.945 213.602C501.305 220.529 492.479 228.586 484.71 237.563C482.513 240.102 480.403 242.715 478.378 245.394C478.032 245.852 478.722 246.417 479.068 245.959C486.199 236.52 494.429 227.922 503.563 220.403C506.13 218.29 508.768 216.263 511.468 214.323C511.936 213.988 511.412 213.267 510.945 213.602Z" fill="#8E2323"/>
<path d="M506.769 232.491C501.534 236.082 496.299 239.674 491.064 243.265C490.59 243.59 491.115 244.311 491.588 243.986C496.823 240.395 502.058 236.803 507.292 233.212C507.767 232.887 507.242 232.167 506.769 232.491Z" fill="#8E2323"/>
<path d="M486.796 153.517C483.799 156.145 480.979 158.969 478.362 161.976C477.984 162.41 478.676 162.973 479.052 162.541C481.619 159.591 484.379 156.816 487.32 154.238C487.748 153.863 487.228 153.138 486.796 153.517Z" fill="#E2CAB0"/>
<path d="M499.817 156.965C496.6 155.227 493.257 153.737 489.815 152.505C489.278 152.313 488.906 153.124 489.447 153.317C492.89 154.549 496.232 156.04 499.449 157.777C499.955 158.051 500.32 157.237 499.817 156.965Z" fill="#E2CAB0"/>
<path d="M499.047 85.945C496.874 90.37 493.106 93.788 488.488 95.532C484.387 97.083 479.795 97.267 475.65 95.821C472.513 96.978 469.192 97.617 465.853 97.687C462.953 97.74 460.035 97.407 457.248 96.6C454.68 95.855 452.192 94.646 450.378 92.63C446.68 88.547 446.759 82.798 447.679 77.654C445.164 74.578 443.254 70.714 444.095 66.657C444.445 64.975 445.26 63.45 446.513 62.276C447.757 61.111 449.308 60.348 450.859 59.673C452.55 58.937 454.259 58.271 455.828 57.298C457.572 56.203 459.167 54.897 460.893 53.784C463.916 51.856 467.605 50.559 471.023 52.25C473.652 53.547 475.597 56.202 475.851 59.138C478.602 57.788 481.608 56.833 484.693 56.781C487.62 56.728 490.424 57.543 492.869 59.156C501.36 64.792 503.376 77.138 499.047 85.945Z" fill="#36344C"/>
<path d="M500.428 99.756L501.181 103.953C501.672 106.713 501.61 109.456 501.085 112.05C500.568 114.6 499.595 117.027 498.255 119.209V119.218C495.092 124.335 489.878 128.13 483.542 129.26C477.206 130.399 470.993 128.629 466.262 124.922C464.08 123.213 462.222 121.101 460.803 118.657C459.576 116.528 458.691 114.17 458.235 111.62L457.482 107.423C445.512 109.561 442.226 94.603 446.712 90.362C446.826 90.248 446.957 90.143 447.071 90.046C450.199 87.461 453.118 89.652 454.16 90.633C452.407 82.177 455.317 77.454 455.317 77.454C459.313 78.006 463.011 78.006 466.349 77.673C471.659 77.147 476.076 75.763 479.371 74.369C483.639 72.573 487.575 69.905 487.575 69.905C487.575 69.905 495.066 76.117 497.502 83.36C497.511 83.369 497.511 83.378 497.511 83.386C497.511 83.386 498.825 79.758 502.033 79.53C502.787 79.469 503.645 79.6 504.636 80.021C510.313 82.44 512.416 97.626 500.428 99.756Z" fill="#E88846"/>
<path d="M504.214 134.588L487.424 152.017L466.744 143.587L466.621 138.531L466.262 124.913C470.994 128.628 477.207 130.399 483.542 129.259C489.869 128.129 495.083 124.334 498.255 119.217L502.768 130.845C502.759 130.845 502.759 130.845 502.759 130.845L504.214 134.588Z" fill="#E88846"/>
<path d="M502.768 130.846L504.214 134.588L502.759 130.846C502.759 130.846 502.759 130.846 502.768 130.846Z" fill="#E88846"/>
<path d="M498.253 119.221C498.253 119.221 493.335 142.248 466.622 138.531L466.266 124.918C470.993 128.631 477.208 130.396 483.547 129.258C489.876 128.13 495.087 124.333 498.253 119.221Z" fill="#C4532C"/>
<path d="M482.834 105.182C480.301 106.037 477.751 106.841 475.189 107.603C475.092 101.689 474.912 95.777 474.64 89.869C474.611 89.246 473.65 89.365 473.678 89.984C473.959 96.088 474.146 102.197 474.24 108.307C474.245 108.652 474.635 108.777 474.904 108.698C477.686 107.88 480.452 107.007 483.2 106.079C483.791 105.879 483.424 104.983 482.834 105.182Z" fill="#C4532C"/>
<path d="M489.187 105.715C489.6 109.516 487.775 113.373 484.599 115.491C484.08 115.837 484.666 116.608 485.184 116.263C488.638 113.96 490.597 109.721 490.149 105.6C490.082 104.98 489.12 105.095 489.187 105.715Z" fill="#36344C"/>
<path d="M465.078 110.422C467.178 110.422 468.881 108.719 468.881 106.619C468.881 104.519 467.178 102.816 465.078 102.816C462.978 102.816 461.275 104.519 461.275 106.619C461.275 108.719 462.978 110.422 465.078 110.422Z" fill="#C4532C"/>
<path d="M494.486 102.077C496.586 102.077 498.289 100.374 498.289 98.274C498.289 96.1737 496.586 94.471 494.486 94.471C492.386 94.471 490.683 96.1737 490.683 98.274C490.683 100.374 492.386 102.077 494.486 102.077Z" fill="#C4532C"/>
<path d="M466.319 99.1873C467.767 98.7763 468.53 96.9938 468.023 95.206C467.515 93.4182 465.93 92.3021 464.481 92.7131C463.033 93.1241 462.27 94.9066 462.778 96.6944C463.285 98.4822 464.87 99.5983 466.319 99.1873Z" fill="#36344C"/>
<path d="M486.398 94.2572C487.847 93.8461 488.61 92.0636 488.102 90.2758C487.595 88.488 486.009 87.3719 484.561 87.7829C483.113 88.1939 482.35 89.9764 482.857 91.7642C483.365 93.552 484.95 94.6682 486.398 94.2572Z" fill="#36344C"/>
<path d="M466.085 87.679C465.771 87.3 465.333 86.986 464.83 86.933C464.657 86.931 464.484 86.928 464.31 86.926C463.963 86.969 463.65 87.095 463.371 87.305L459.535 89.575C459.145 89.806 458.853 90.403 458.789 90.83C458.717 91.306 458.848 91.912 459.161 92.289C459.475 92.668 459.913 92.982 460.416 93.035C460.589 93.037 460.762 93.04 460.935 93.042C461.282 92.999 461.595 92.873 461.874 92.663L465.71 90.393C466.1 90.162 466.392 89.565 466.456 89.138C466.528 88.662 466.397 88.056 466.085 87.679Z" fill="#36344C"/>
<path d="M479.848 83.774C479.916 83.287 480.124 82.789 480.524 82.48C480.67 82.387 480.816 82.294 480.962 82.201C481.28 82.055 481.613 81.998 481.96 82.03L486.416 81.947C486.869 81.939 487.431 82.293 487.71 82.624C488.021 82.991 488.228 83.576 488.16 84.06C488.092 84.547 487.884 85.045 487.483 85.354C487.337 85.447 487.191 85.54 487.045 85.633C486.727 85.779 486.395 85.836 486.047 85.804L481.591 85.887C481.138 85.895 480.576 85.541 480.297 85.211C479.987 84.843 479.78 84.259 479.848 83.774Z" fill="#36344C"/>
<path d="M124.274 352.736L110.658 469H174.55L187.652 383.439L202.482 469H268.469L249.266 352.736H124.274Z" fill="#AF3737"/>
<path d="M183.554 383.189C177.995 381.592 172.437 379.995 166.878 378.398C166.349 378.246 166.22 379.094 166.744 379.245C172.303 380.842 177.861 382.439 183.42 384.036C183.949 384.188 184.079 383.34 183.554 383.189Z" fill="#8E2323"/>
<path d="M180.56 386.339L164.356 387.336C163.806 387.37 163.901 388.222 164.452 388.188L180.656 387.191C181.206 387.157 181.111 386.305 180.56 386.339Z" fill="#8E2323"/>
<path d="M153.125 145.773C153.125 145.773 144.136 145.836 139.403 152.981C139.403 152.981 114.963 158.42 109.92 167.187C104.877 175.954 74.23 225.843 74.23 225.843L100.629 277.616C100.629 277.616 113.334 274.528 111.937 261.145L120.316 250.671L125.902 285.275L120.936 363.948C120.936 363.948 138.703 379.931 149.953 381.327C161.203 382.724 188.746 363.792 188.746 363.792C188.746 363.792 215.669 381.404 225.677 382.413C235.686 383.422 252.212 362.861 252.212 362.861L243.445 269.524L245.074 216.222L273.238 230.188C273.238 230.188 282.933 246.059 300.256 235.679L293.721 193.179C293.721 193.179 249.884 161.71 239.643 154.774C229.402 147.838 195.419 148.489 195.419 148.489C195.419 148.489 189.625 142.903 183.6 143.834L153.125 145.773Z" fill="#F2B34E"/>
<path d="M168.089 187.121C164.999 182.606 161.87 178.041 157.845 174.294C154.297 170.99 149.911 168.196 145.065 167.363C142.652 166.948 140.104 167.113 137.938 168.285C137.432 164.22 137.958 160.081 139.508 156.281C139.716 155.771 138.936 155.415 138.727 155.927C137.04 160.065 136.491 164.604 137.162 169.023C137.212 169.35 137.566 169.501 137.84 169.322C141.89 166.674 147.359 168.392 151.243 170.507C155.627 172.895 159.184 176.525 162.236 180.422C164.058 182.748 165.728 185.187 167.396 187.624C167.708 188.082 168.4 187.577 168.089 187.121Z" fill="#EA8C11"/>
<path d="M198.888 152.58C198.673 152.073 197.873 152.382 198.089 152.892C199.702 156.693 200.853 160.666 201.537 164.736C192.227 165.775 185.092 172.74 179.917 180.053C178.297 182.342 176.797 184.712 175.304 187.084C175.013 187.546 175.674 188.093 175.967 187.627C180.878 179.828 186.239 171.518 194.9 167.5C197.174 166.445 199.591 165.751 202.09 165.527C202.313 165.507 202.504 165.278 202.468 165.053C201.784 160.767 200.584 156.576 198.888 152.58Z" fill="#EA8C11"/>
<path d="M110.808 259.294C107.086 250.748 101.787 242.924 95.243 236.287C93.372 234.389 91.398 232.594 89.336 230.905C88.908 230.555 88.366 231.219 88.793 231.568C95.918 237.404 101.935 244.547 106.489 252.553C107.789 254.838 108.959 257.195 110.009 259.605C110.229 260.11 111.03 259.802 110.808 259.294Z" fill="#EA8C11"/>
<path d="M272.983 192.928C273.098 192.388 272.251 192.255 272.136 192.794C270.241 201.697 269.66 210.874 270.424 219.945C270.643 222.545 270.975 225.134 271.411 227.707C271.503 228.248 272.356 228.157 272.263 227.611C270.74 218.641 270.541 209.463 271.7 200.438C272.024 197.918 272.454 195.413 272.983 192.928Z" fill="#EA8C11"/>
<path d="M182.857 297.013C181.259 275.204 179.661 253.395 178.064 231.586C177.167 219.346 176.271 207.107 175.374 194.867C175.334 194.317 174.481 194.412 174.522 194.963C176.12 216.772 177.718 238.581 179.315 260.39C180.913 282.199 182.511 304.008 184.108 325.817L186.798 362.536C186.838 363.086 187.691 362.991 187.65 362.44C186.053 340.631 184.455 318.822 182.857 297.013Z" fill="#EA8C11"/>
<path d="M116.768 215.382C116.328 212.349 115.887 209.316 115.447 206.283C115.368 205.739 114.515 205.831 114.595 206.379C116.152 217.1 117.708 227.821 119.265 238.541C119.705 241.574 120.146 244.607 120.586 247.64C120.665 248.184 121.518 248.092 121.438 247.544C119.882 236.824 118.325 226.103 116.768 215.382Z" fill="#EA8C11"/>
<path d="M117.896 245.817C116.146 239.203 114.396 232.588 112.646 225.974C112.505 225.442 111.707 225.757 111.847 226.286C113.597 232.9 115.347 239.515 117.097 246.129C117.237 246.661 118.035 246.346 117.896 245.817Z" fill="#EA8C11"/>
<path d="M246.151 184.137C245.734 191.863 245.318 199.589 244.901 207.314C244.783 209.511 244.664 211.708 244.546 213.906C244.517 214.452 245.363 214.591 245.393 214.04C245.81 206.314 246.226 198.588 246.643 190.863C246.761 188.666 246.88 186.469 246.998 184.271C247.028 183.726 246.181 183.586 246.151 184.137Z" fill="#EA8C11"/>
<path d="M188.852 154.676L170.938 190.631L148.888 157.177L149.582 149.311L150.816 135.339C155.217 139.693 161.369 142.23 167.99 141.81C174.6 141.398 180.379 138.125 184.218 133.265L188.852 154.676Z" fill="#D36D29"/>
<path d="M184.219 133.266C184.219 133.266 176.853 152.055 149.953 145.114L150.816 135.339C155.217 139.693 161.369 142.23 167.99 141.81C174.6 141.399 180.379 138.125 184.219 133.266Z" fill="#AA3617"/>
<path d="M187.43 116.71L187.687 120.793C187.846 123.467 187.501 126.071 186.713 128.489C185.943 130.854 184.756 133.059 183.233 134.989V134.998C179.664 139.515 174.289 142.561 168.143 142.942C161.988 143.332 156.267 140.976 152.176 136.929C150.281 135.069 148.74 132.846 147.668 130.376C146.729 128.215 146.145 125.868 145.985 123.398L145.737 119.315C134.49 120.023 132.719 106.385 136.908 102.294C137.05 102.152 137.2 102.028 137.351 101.913C137.475 101.816 137.608 101.727 137.723 101.647C140.982 99.53 143.515 101.93 144.4 102.975C145.746 101.779 146.711 100.159 147.119 98.405C147.526 96.722 147.411 94.925 146.8 93.304C148.323 93.127 149.793 92.454 150.909 91.382C152.379 89.974 153.203 87.911 153.088 85.874C154.346 86.52 155.78 86.795 157.188 86.689C157.941 86.645 158.685 86.476 159.393 86.211C161.412 85.432 163.077 83.767 163.839 81.739C165.77 83.298 168.267 84.148 170.755 84.104C173.235 84.06 175.697 83.112 177.574 81.483C177.742 83.334 178.406 85.114 179.46 86.655C179.717 87.053 180.009 87.434 180.337 87.797C181.665 89.347 183.41 90.551 185.367 91.162C184.287 93.836 184.428 96.971 185.704 99.549C185.704 99.558 185.713 99.558 185.722 99.567C185.943 99.815 186.174 100.054 186.413 100.293L186.44 100.798V100.825C186.44 100.825 186.44 100.825 186.449 100.816C186.546 100.621 188.185 97.513 191.169 97.646C191.886 97.673 192.692 97.894 193.587 98.399C193.897 98.576 194.198 98.798 194.473 99.063C198.73 103.063 198.358 116.037 187.43 116.71Z" fill="#D36D29"/>
<path d="M170.096 119.956C167.593 120.493 165.079 120.979 162.557 121.425C163.111 115.788 163.585 110.143 163.971 104.492C164.012 103.896 163.084 103.904 163.043 104.497C162.644 110.336 162.155 116.168 161.577 121.992C161.544 122.32 161.902 122.482 162.166 122.436C164.903 121.961 167.63 121.432 170.345 120.85C170.931 120.724 170.679 119.831 170.096 119.956Z" fill="#AA3617"/>
<path d="M153.045 123.026C155.056 123.026 156.687 121.395 156.687 119.384C156.687 117.373 155.056 115.742 153.045 115.742C151.034 115.742 149.403 117.373 149.403 119.384C149.403 121.395 151.034 123.026 153.045 123.026Z" fill="#AA3617"/>
<path d="M181.937 118.297C183.948 118.297 185.579 116.666 185.579 114.655C185.579 112.644 183.948 111.013 181.937 111.013C179.926 111.013 178.295 112.644 178.295 114.655C178.295 116.666 179.926 118.297 181.937 118.297Z" fill="#AA3617"/>
<path d="M155.044 112.469C156.467 112.236 157.388 110.623 157.1 108.866C156.813 107.11 155.426 105.874 154.003 106.107C152.58 106.34 151.659 107.953 151.947 109.71C152.234 111.466 153.621 112.702 155.044 112.469Z" fill="#36344C"/>
<path d="M174.689 109.97C176.112 109.737 177.032 108.124 176.745 106.368C176.457 104.611 175.071 103.376 173.648 103.609C172.224 103.841 171.304 105.454 171.591 107.211C171.879 108.968 173.265 110.203 174.689 109.97Z" fill="#36344C"/>
<path d="M156.071 101.473C155.814 101.078 155.432 100.732 154.958 100.626C154.794 100.605 154.629 100.584 154.465 100.562C154.13 100.565 153.819 100.651 153.53 100.82L149.632 102.561C149.236 102.738 148.893 103.274 148.785 103.674C148.665 104.119 148.723 104.71 148.979 105.102C149.236 105.497 149.618 105.843 150.092 105.949C150.256 105.97 150.421 105.991 150.585 106.013C150.92 106.01 151.231 105.924 151.52 105.755L155.418 104.014C155.815 103.837 156.157 103.301 156.265 102.901C156.385 102.457 156.327 101.866 156.071 101.473Z" fill="#36344C"/>
<path d="M169.592 99.26C169.71 98.804 169.962 98.353 170.377 98.103C170.526 98.03 170.675 97.958 170.824 97.885C171.142 97.781 171.465 97.763 171.792 97.832L176.041 98.239C176.473 98.28 176.969 98.679 177.198 99.024C177.454 99.407 177.587 99.986 177.469 100.44C177.351 100.896 177.099 101.347 176.684 101.597C176.535 101.67 176.386 101.742 176.237 101.815C175.919 101.919 175.596 101.937 175.269 101.868L171.02 101.461C170.588 101.42 170.092 101.021 169.863 100.676C169.608 100.293 169.475 99.714 169.592 99.26Z" fill="#36344C"/>
<path d="M197.658 93.747C197.189 95.775 195.843 97.475 194.47 99.061C194.195 98.795 193.894 98.574 193.584 98.397C192.69 97.892 191.884 97.671 191.166 97.644C188.182 97.511 186.543 100.62 186.446 100.814C186.446 100.805 186.437 100.805 186.437 100.796L186.41 100.291C186.171 100.052 185.941 99.813 185.719 99.565C185.71 99.556 185.701 99.556 185.701 99.547C184.745 97.616 184.426 95.367 184.78 93.242C183.018 93.481 181.185 93.189 179.608 92.277C177.952 91.329 176.686 89.806 175.995 88.044C175.012 88.593 173.94 88.983 172.816 89.151C170.221 89.532 167.573 88.753 165.528 87.167C164.864 87.769 164.12 88.292 163.305 88.708C160.958 89.895 158.177 90.063 155.671 89.301C155.21 90.576 154.484 91.745 153.51 92.702C151.836 94.349 149.596 95.279 147.275 95.403C147.39 96.404 147.355 97.422 147.116 98.405C146.709 100.158 145.743 101.779 144.397 102.975C143.511 101.93 140.979 99.53 137.72 101.647C137.605 101.727 137.472 101.815 137.348 101.913C137.197 102.028 137.047 102.152 136.905 102.294C135.931 101.462 135.293 100.213 135.24 98.92C135.178 97.211 136.152 95.493 137.658 94.669C136.206 93.27 135.595 91.056 136.126 89.116C136.648 87.168 138.296 85.574 140.262 85.104C138.686 83.103 138.641 80.038 140.156 77.993C141.67 75.938 144.61 75.088 146.984 76C146.249 73.414 147.506 70.403 149.853 69.101C152.209 67.799 155.423 68.339 157.23 70.332C157.593 67.578 159.834 65.178 162.561 64.629C165.28 64.08 168.282 65.417 169.69 67.817C170.744 65.594 173.259 64.16 175.703 64.372C178.156 64.593 180.379 66.444 181.034 68.818C182.938 67.242 185.993 67.791 187.756 69.526C189.527 71.253 190.2 73.821 190.333 76.292C192.06 75.504 194.23 76.141 195.505 77.55C196.78 78.949 197.241 80.968 197.028 82.855C196.824 84.741 196.018 86.512 195.035 88.133C197.207 88.805 198.154 91.533 197.658 93.747Z" fill="#36344C"/>
<path d="M178.048 128.608C176.431 130.792 173.717 131.861 171.049 131.431C168.747 131.066 165.393 129.056 166.271 126.251C166.664 124.99 167.925 124.14 169.14 123.775C170.3 123.419 171.515 123.455 172.658 123.821C173.014 122.761 173.517 121.765 174.458 121.089C175.618 120.248 177.144 120.203 178.241 121.18C180.368 123.08 179.537 126.598 178.048 128.608Z" fill="#F4E9DC"/>
<path d="M41.411 201.791C41.411 201.791 60.148 294.197 80.98 289.542C101.812 284.887 103.791 274.589 100.299 266.005C96.808 257.421 62.359 192.481 62.359 192.481C62.359 192.481 62.359 179.621 58.868 168.972C55.377 158.323 56.773 144.416 55.26 142.728C53.747 141.04 47.346 138.742 48.277 162.222C48.277 162.222 21.888 131.847 17.844 136.095C13.8 140.343 32.741 161.582 32.741 161.582C32.741 161.582 7.34099 141.099 4.92599 144.649C2.51099 148.199 24.303 167.052 24.303 167.052C24.303 167.052 6.17699 152.126 3.52899 154.948C0.880994 157.77 22.15 174.907 22.15 174.907C22.15 174.907 0.444994 172.143 0.386994 175.954C0.328994 179.765 20.87 182.297 20.87 182.297C20.87 182.297 29.851 197.369 41.411 201.791Z" fill="#D36D29"/>
<path d="M39.172 161.043C37.694 161.915 36.267 162.865 34.864 163.849C34.852 163.795 34.829 163.745 34.791 163.702L32.351 160.905C32.202 160.735 31.961 160.671 31.766 160.812C31.595 160.936 31.524 161.226 31.673 161.397L34.113 164.194C34.149 164.235 34.19 164.269 34.235 164.296C31.805 166.042 29.48 167.931 27.302 169.985C25.945 168.522 24.589 167.06 23.232 165.597C23.078 165.431 22.846 165.36 22.647 165.504C22.481 165.625 22.4 165.922 22.554 166.089L26.643 170.497C26.662 170.518 26.685 170.532 26.707 170.549C26.025 171.208 25.351 171.877 24.697 172.565C24.325 172.956 24.976 173.484 25.345 173.096C29.564 168.659 34.392 164.831 39.664 161.72C40.128 161.446 39.633 160.771 39.172 161.043Z" fill="#AA3617"/>
<path d="M44.282 172.171C42.915 176.268 42.178 180.527 42.082 184.844C42.07 185.38 42.902 185.283 42.914 184.75C43.007 180.595 43.729 176.459 45.044 172.516C45.214 172.011 44.452 171.661 44.282 172.171Z" fill="#AA3617"/>
<path d="M57.778 196.258C54.449 197.353 51.19 198.649 48.018 200.139C47.533 200.367 47.833 201.149 48.322 200.919C51.494 199.428 54.752 198.132 58.082 197.038C58.594 196.87 58.29 196.09 57.778 196.258Z" fill="#AA3617"/>
<path d="M309.187 139.835C309.187 139.835 321.474 233.317 300.259 235.68C279.044 238.042 273.829 228.945 274.343 219.693C274.858 210.44 286.35 137.833 286.35 137.833C286.35 137.833 282.174 125.67 282.018 114.465C281.862 103.26 276.025 90.559 276.908 88.472C277.791 86.385 283.098 82.132 289.843 104.641C289.843 104.641 304.938 67.342 310.142 70.047C315.346 72.751 304.33 98.991 304.33 98.991C304.33 98.991 321.702 71.37 325.138 73.943C328.574 76.516 314.086 101.425 314.086 101.425C314.086 101.425 326.383 81.422 329.803 83.231C333.223 85.04 318.673 108.155 318.673 108.155C318.673 108.155 338.304 98.492 339.597 102.078C340.89 105.664 322.284 114.729 322.284 114.729C322.284 114.729 318.684 131.898 309.187 139.835Z" fill="#D36D29"/>
<path d="M298.072 100.567C299.753 100.912 301.412 101.347 303.058 101.821C303.052 101.767 303.057 101.711 303.079 101.658L304.478 98.22C304.563 98.011 304.771 97.872 305.001 97.943C305.203 98.005 305.364 98.256 305.279 98.466L303.88 101.904C303.86 101.954 303.831 102 303.798 102.04C306.663 102.902 309.476 103.934 312.203 105.17C313.011 103.346 313.819 101.522 314.628 99.698C314.719 99.491 314.917 99.349 315.151 99.421C315.347 99.481 315.521 99.736 315.428 99.944L312.992 105.441C312.981 105.467 312.963 105.487 312.949 105.511C313.808 105.913 314.662 106.327 315.505 106.765C315.984 107.014 315.54 107.725 315.064 107.477C309.633 104.651 303.824 102.598 297.827 101.368C297.298 101.26 297.548 100.46 298.072 100.567Z" fill="#AA3617"/>
<path d="M296.853 112.752C299.476 116.183 301.556 119.972 303.05 124.024C303.235 124.527 302.417 124.706 302.232 124.206C300.795 120.306 298.768 116.629 296.244 113.327C295.92 112.903 296.526 112.325 296.853 112.752Z" fill="#AA3617"/>
<path d="M291.91 139.917C295.414 139.871 298.917 140.039 302.401 140.418C302.934 140.476 302.904 141.313 302.367 141.255C298.883 140.875 295.38 140.708 291.876 140.754C291.337 140.761 291.372 139.924 291.91 139.917Z" fill="#AA3617"/>
<path d="M380.84 124.594C377.434 128.463 371.987 130.398 366.949 129.052C361.742 127.67 357.793 123.72 353.058 121.367C350.553 120.119 347.834 119.12 345.881 117.034C345.631 116.775 345.408 116.499 345.203 116.214C344.98 115.938 344.766 115.634 344.57 115.305C341.753 110.357 344.632 104.143 347.699 100.024C351.016 95.575 355.928 92.357 361.474 91.599C366.743 90.886 371.977 92.696 376.087 95.977C380.295 99.338 383.416 104.179 384.512 109.457C385.601 114.707 384.433 120.52 380.84 124.594Z" fill="#AF3737"/>
<path d="M388.502 141.779C388.502 160.429 376.073 171.565 360.27 171.565C344.467 171.565 331.274 160.429 331.274 141.779C331.274 123.129 344.085 112.099 359.888 112.099C375.691 112.099 388.502 123.129 388.502 141.779Z" fill="#AF3737"/>
<path d="M249.079 83.492C248.571 87.495 247.349 91.373 246.592 95.341C245.54 100.824 245.371 106.45 244.39 111.951C243.454 117.211 241.653 122.516 238.051 126.439C238.096 127.785 238.131 129.132 238.176 130.478L217.465 125.352C217.616 123.221 217.768 121.09 217.92 118.959C214.987 112.647 213.899 105.621 211.75 98.979C209.28 91.356 205.393 84.206 203.503 76.422C203.387 75.923 203.271 75.415 203.36 74.915C203.44 74.416 203.77 73.925 204.26 73.792C205.036 73.587 205.722 74.318 206.186 74.978C209.012 78.981 211.509 83.234 213.639 87.647C211.678 80.764 210.269 73.73 209.404 66.624C209.217 65.135 209.065 63.619 209.315 62.139C209.413 61.542 209.672 60.855 210.26 60.704C210.813 60.57 211.339 60.98 211.713 61.408C212.694 62.531 213.255 63.958 213.772 65.358C216.429 72.491 218.569 79.801 220.691 87.112L220.86 87.059C219.095 77.947 217.321 68.791 216.991 59.519C216.973 58.984 216.955 58.431 217.134 57.932C217.321 57.424 217.731 56.978 218.266 56.907C218.97 56.818 219.568 57.406 219.987 57.977C221.476 60.01 222.287 62.444 222.991 64.86C224.542 70.147 225.71 75.532 226.753 80.944C226.379 75.256 226.031 69.577 225.879 63.879C225.826 62.016 225.808 60.108 226.396 58.342C226.646 57.593 227.225 56.764 228.001 56.88C228.607 56.969 228.964 57.584 229.213 58.137C232.396 65.091 232.922 72.901 234.126 80.453C234.929 85.499 236.052 90.483 237.496 95.378C238.869 90.474 241.125 85.82 244.111 81.692C244.566 81.068 245.047 80.444 245.689 80.034C246.331 79.615 247.169 79.437 247.864 79.749C249.151 80.327 249.258 82.093 249.079 83.492Z" fill="#F99958"/>
<path d="M230.468 80.901C229.443 81.32 228.438 81.784 227.447 82.275C227.341 81.499 227.235 80.723 227.129 79.947C227.098 79.716 226.878 79.516 226.636 79.554C226.402 79.591 226.209 79.799 226.243 80.047C226.356 80.875 226.469 81.702 226.582 82.53C226.589 82.583 226.609 82.634 226.634 82.681C223.109 84.514 219.825 86.798 216.886 89.482C216.466 89.865 216.986 90.59 217.41 90.203C221.338 86.616 225.867 83.743 230.792 81.732C231.322 81.515 231.001 80.683 230.468 80.901Z" fill="#D36D29"/>
<path d="M214.107 87.053C213.986 86.853 213.662 86.813 213.484 86.954C213.281 87.115 213.256 87.363 213.385 87.577C213.409 87.616 213.432 87.656 213.455 87.696C213.462 87.709 213.469 87.723 213.476 87.736C213.516 87.814 213.554 87.893 213.589 87.972C213.655 88.121 213.712 88.274 213.761 88.43C213.783 88.501 213.804 88.573 213.822 88.645C213.828 88.671 213.837 88.713 213.839 88.724C213.846 88.758 213.853 88.793 213.859 88.827C213.891 88.999 213.911 89.173 213.922 89.347C213.937 89.58 214.185 89.776 214.415 89.74C214.663 89.701 214.824 89.497 214.808 89.247C214.76 88.468 214.509 87.72 214.107 87.053Z" fill="#D36D29"/>
<path d="M232.524 105.303C229.598 101.259 225.861 97.868 221.567 95.327C221.073 95.035 220.71 95.85 221.198 96.139C225.356 98.599 228.971 101.913 231.802 105.827C232.139 106.293 232.861 105.769 232.524 105.303Z" fill="#D36D29"/>
<path d="M449.61 429.476C449.601 430.492 449.583 431.509 449.548 432.534C449.521 433.39 449.494 434.326 448.924 435.021C448.478 435.556 447.765 435.877 447.079 435.663C446.428 435.458 446.027 434.878 445.76 434.29C445.368 433.425 445.136 432.462 444.86 431.562C444.557 430.563 444.272 429.565 444.004 428.566C443.754 427.657 443.531 426.738 443.309 425.82C443.193 427.692 443.041 429.565 442.765 431.428C442.391 433.987 441.784 436.537 440.786 438.935C440.421 439.809 439.948 440.888 438.949 441.173C438.111 441.414 437.362 440.932 436.988 440.192C436.524 439.274 436.587 438.239 436.596 437.241C436.623 435.761 436.65 434.272 436.676 432.792C436.694 431.669 436.712 430.536 436.729 429.413C436.578 430.055 436.417 430.697 436.239 431.33C435.704 433.3 435.08 435.253 434.304 437.143C433.742 438.507 432.325 440.237 430.666 439.309C430.015 438.952 429.721 438.257 429.587 437.57C429.4 436.58 429.418 435.519 429.418 434.512C429.418 433.184 429.507 431.855 429.65 430.536C429.133 431.436 428.58 432.328 427.983 433.184C427.537 433.808 427.065 434.539 426.316 434.833C425.701 435.065 425.014 434.86 424.658 434.298C424.373 433.834 424.364 433.255 424.417 432.738C424.497 431.918 424.738 431.106 424.907 430.304C425.29 428.485 425.674 426.675 426.057 424.857C426.449 423.003 426.842 421.157 427.234 419.303C427.617 417.529 428.045 415.746 428.197 413.927C428.331 412.26 428.045 410.655 427.644 409.068C427.029 408.043 426.44 406.991 425.923 405.903C423.525 400.803 422.508 394.803 424.488 389.4C425.745 385.95 428.349 382.963 431.656 381.412C431.888 381.252 432.12 381.091 432.36 380.957C433.786 380.163 435.427 379.744 437.059 379.941C438.673 380.128 440.135 380.966 441.258 382.116C443.87 384.791 444.521 388.607 445.261 392.119C446.117 396.247 446.902 400.393 447.561 404.556C448.861 412.795 449.672 421.131 449.61 429.476Z" fill="#F99958"/>
<path d="M436.384 409.752C436.188 413.983 436.028 418.339 434.761 422.413C434.504 423.239 433.991 424.492 432.917 424.391C432.019 424.306 431.745 423.116 431.573 422.402C431.066 420.295 431.026 418.114 430.799 415.967C430.574 413.83 430.141 411.718 429.069 409.834C428.785 409.335 428.066 409.864 428.348 410.358C429.477 412.341 429.792 414.638 429.991 416.876C430.188 419.089 430.201 421.486 430.995 423.59C431.265 424.305 431.738 425.008 432.513 425.222C433.39 425.464 434.308 425.005 434.842 424.31C435.472 423.49 435.707 422.4 435.955 421.417C436.247 420.259 436.466 419.084 436.635 417.902C437.015 415.249 437.14 412.567 437.264 409.892C437.29 409.325 436.41 409.179 436.384 409.752Z" fill="#D36D29"/>
<path d="M430.398 425.44C430.133 427.048 429.868 428.656 429.603 430.264C429.51 430.83 430.39 430.97 430.483 430.403C430.748 428.795 431.013 427.187 431.279 425.579C431.372 425.013 430.492 424.873 430.398 425.44Z" fill="#D36D29"/>
<path d="M436.701 421.655C436.56 424.175 436.419 426.695 436.278 429.215C436.246 429.782 437.127 429.928 437.159 429.354C437.3 426.834 437.441 424.314 437.581 421.794C437.614 421.227 436.733 421.081 436.701 421.655Z" fill="#D36D29"/>
<path d="M442.828 414.672C442.715 414.115 441.827 414.208 441.942 414.772C442.723 418.607 443.128 422.507 443.152 426.421C443.155 426.993 444.042 426.891 444.038 426.321C444.015 422.406 443.61 418.507 442.828 414.672Z" fill="#D36D29"/>
<path d="M352.534 331.197L291.323 328.223C291.323 328.223 270.008 327.232 267.53 469H325.031L342.829 389.689L352.534 469H404.837C404.837 469 417.725 343.589 386.992 330.701L352.534 331.197Z" fill="#36344C"/>
<path d="M392.318 335.907C330.604 353.934 298.633 332.189 298.633 332.189L307.682 280.389L315.367 205.783L379.56 208.761L386.996 293.772C386.434 293.825 392.318 335.907 392.318 335.907Z" fill="#F4E9DC"/>
<path d="M366.659 257.217C366.623 260.649 366.275 264.064 365.848 267.461C365.42 270.858 364.974 274.255 364.431 277.634C363.397 284.169 361.97 290.954 358.823 296.829C357.601 299.102 355.836 301.403 353.188 301.964C350.273 302.579 347.642 300.662 345.672 298.754C343.113 296.267 340.733 293.583 338.272 290.989C336.043 288.635 333.725 286.335 331.728 283.767C329.909 281.413 328.394 278.774 327.823 275.823C327.217 272.711 327.823 269.511 329.018 266.604C330.239 263.608 332.04 260.889 333.939 258.286C335.767 255.772 337.737 253.373 339.868 251.109C340.626 250.307 341.41 249.54 342.213 248.773C343.541 247.364 344.941 246 346.412 244.716C348.712 242.71 351.2 240.695 353.892 239.233C355.22 238.502 356.7 237.994 358.234 238.145C359.509 238.27 360.695 238.885 361.64 239.732C363.771 241.649 364.832 244.484 365.536 247.185C366.391 250.459 366.685 253.847 366.659 257.217Z" fill="#F2B34E"/>
<path d="M371.848 286.425C373.093 295.16 363.254 299.129 356.388 295.447C349.09 288.173 346.329 258.077 363.681 264.947C371.428 268.892 372.326 278.681 371.848 286.425Z" fill="#D36D29"/>
<path d="M334.976 257.94C328.71 261.288 321.074 261.121 314.992 257.438C313.377 256.46 311.899 255.24 310.624 253.848C310.24 253.429 309.515 253.949 309.903 254.372C314.778 259.694 322.147 262.236 329.261 260.893C331.371 260.495 333.406 259.782 335.3 258.771C335.8 258.504 335.483 257.669 334.976 257.94Z" fill="#E2CAB0"/>
<path d="M385.766 260.99C379.032 264.957 370.622 265.342 363.559 262.001C361.629 261.088 359.839 259.918 358.217 258.529C357.78 258.155 357.217 258.846 357.652 259.219C363.772 264.462 372.18 266.396 379.974 264.357C382.195 263.776 384.313 262.875 386.29 261.711C386.785 261.419 386.257 260.7 385.766 260.99Z" fill="#E2CAB0"/>
<path d="M379.301 160.697L379.069 164.611C378.971 166.109 378.73 167.562 378.32 168.926C377.009 173.509 374.121 177.387 370.314 179.981C366.775 182.406 362.433 183.726 357.85 183.449C352.545 183.137 347.838 180.756 344.45 177.155C340.804 173.259 338.673 167.945 339.012 162.221L339.244 158.325C328.073 157.656 328.358 143.561 333.288 140.734C337.095 138.559 339.413 141.813 340.002 142.785C340.002 142.785 343.372 142.749 347.982 141.644C352.921 140.467 359.278 138.078 364.458 133.21C365.305 132.425 366.125 131.561 366.901 130.616C368.06 129.216 369.13 127.647 370.057 125.9C370.057 125.9 373.463 128.307 376.325 132.818C377.377 134.459 378.349 136.375 379.053 138.551C379.731 140.602 380.176 142.893 380.23 145.398H380.212V145.434C380.212 145.434 380.212 145.425 380.23 145.407V145.398C380.515 144.988 383.404 141.065 387.309 143.963C387.862 144.373 388.334 144.944 388.691 145.621C388.914 146.022 389.101 146.468 389.261 146.949C390.954 152.236 388.297 161.232 379.301 160.697Z" fill="#F99958"/>
<path d="M396.214 200.665C395.483 202.448 394.297 204.418 392.773 206.505C375.905 229.614 341.909 231.183 322.438 210.223C317.677 205.088 313.683 200.255 311.65 196.618C320.441 194.817 341.865 190.671 341.865 190.671H341.874L342.266 188.611L343.55 181.844L344.45 177.154C347.838 180.756 352.545 183.136 357.85 183.448C362.433 183.724 366.775 182.405 370.314 179.98L370.671 185.32L371.126 191.748C372.623 191.928 396.214 200.576 396.214 200.665Z" fill="#F99958"/>
<path d="M361.246 162.379C358.905 162.355 356.566 162.283 354.227 162.174C355.854 157.258 357.411 152.319 358.892 147.356C359.048 146.833 358.219 146.653 358.064 147.174C356.534 152.301 354.926 157.405 353.24 162.483C353.145 162.769 353.431 162.985 353.676 162.998C356.212 163.125 358.75 163.201 361.29 163.227C361.836 163.232 361.791 162.385 361.246 162.379Z" fill="#D36D29"/>
<path d="M346.154 161.772C347.993 161.772 349.484 160.281 349.484 158.442C349.484 156.603 347.993 155.112 346.154 155.112C344.315 155.112 342.824 156.603 342.824 158.442C342.824 160.281 344.315 161.772 346.154 161.772Z" fill="#D36D29"/>
<path d="M372.872 163.361C374.711 163.361 376.202 161.87 376.202 160.031C376.202 158.192 374.711 156.701 372.872 156.701C371.033 156.701 369.542 158.192 369.542 160.031C369.542 161.87 371.033 163.361 372.872 163.361Z" fill="#D36D29"/>
<path d="M351.886 149.885C351.983 148.26 350.994 146.88 349.679 146.802C348.363 146.723 347.217 147.977 347.121 149.601C347.024 151.226 348.013 152.607 349.328 152.685C350.644 152.763 351.79 151.51 351.886 149.885Z" fill="#36344C"/>
<path d="M369.908 151.605C370.005 149.981 369.017 148.6 367.701 148.522C366.385 148.443 365.24 149.697 365.143 151.322C365.046 152.946 366.035 154.327 367.35 154.405C368.666 154.483 369.812 153.23 369.908 151.605Z" fill="#36344C"/>
<path d="M352.452 143.077C352.302 142.673 352.031 142.287 351.63 142.098C351.488 142.046 351.345 141.994 351.203 141.942C350.904 141.877 350.609 141.891 350.317 141.984L346.491 142.753C346.102 142.831 345.689 143.241 345.512 143.576C345.316 143.948 345.249 144.487 345.398 144.889C345.548 145.293 345.819 145.679 346.221 145.868C346.363 145.92 346.506 145.972 346.648 146.024C346.947 146.089 347.242 146.075 347.534 145.982L351.36 145.213C351.749 145.135 352.162 144.725 352.339 144.391C352.535 144.017 352.602 143.478 352.452 143.077Z" fill="#36344C"/>
<path d="M364.957 143.82C365.154 143.437 365.469 143.086 365.89 142.945C366.038 142.91 366.185 142.876 366.333 142.841C366.638 142.812 366.929 142.861 367.207 142.988L370.915 144.205C371.292 144.329 371.654 144.784 371.789 145.138C371.94 145.531 371.942 146.074 371.746 146.455C371.549 146.838 371.234 147.189 370.813 147.33C370.665 147.365 370.518 147.4 370.37 147.434C370.065 147.463 369.774 147.414 369.496 147.287L365.788 146.07C365.411 145.946 365.049 145.491 364.913 145.137C364.763 144.745 364.76 144.202 364.957 143.82Z" fill="#36344C"/>
<path d="M370.314 179.984C370.314 179.984 365.954 192.45 342.267 188.607L343.555 181.843L344.451 177.153C347.84 180.758 352.549 183.135 357.847 183.448C362.436 183.726 366.774 182.406 370.314 179.984Z" fill="#D36D29"/>
<path d="M367.359 164.693C365.662 167.079 362.894 168.535 359.968 168.591C359.395 168.602 359.497 169.488 360.068 169.477C363.202 169.417 366.233 167.811 368.05 165.258C368.381 164.792 367.692 164.225 367.359 164.693Z" fill="#36344C"/>
<path d="M342.827 185.678L341.873 190.671L333.109 192.401L302.787 392.914C266.545 390.311 251.175 368.619 251.175 368.619L265.547 251.147C265.547 251.147 209.619 209.261 203.913 190.753C198.216 172.244 213.007 120.034 213.007 120.034L217.465 121.14L238.176 126.266L241.011 126.97V169.765L316.847 189.041C330.238 183.119 342.827 185.678 342.827 185.678Z" fill="#6BB2AB"/>
<path d="M370.67 185.321C370.67 185.321 381.579 184.843 389.738 194.633C389.738 194.633 412.272 199.59 416.485 214.461C420.698 229.332 443.5 378.536 443.5 378.536C443.5 378.536 441.269 394.026 422.929 395.885L412.519 380.271L413.015 387.459C413.015 387.459 399.383 401.215 383.025 399.108L371.123 191.75L370.67 185.321Z" fill="#6BB2AB"/>
<path d="M317.372 233.159C316.556 224.363 316.184 215.526 316.257 206.693C316.299 201.664 316.49 196.638 316.822 191.62C316.859 191.052 315.979 190.907 315.941 191.481C315.356 200.335 315.212 209.218 315.519 218.086C315.828 226.987 316.589 235.871 317.799 244.695C318.478 249.645 319.3 254.574 320.259 259.478C320.368 260.037 321.256 259.943 321.145 259.378C319.451 250.708 318.188 241.955 317.372 233.159Z" fill="#389688"/>
<path d="M390.384 196.498C389.601 204.533 388.409 212.526 386.807 220.438C385.198 228.379 383.181 236.238 380.758 243.97C379.393 248.324 377.9 252.637 376.285 256.904C376.083 257.439 376.894 257.81 377.097 257.273C379.968 249.686 382.45 241.952 384.527 234.11C386.603 226.273 388.274 218.329 389.53 210.319C390.242 205.777 390.819 201.214 391.265 196.638C391.32 196.069 390.44 195.926 390.384 196.498Z" fill="#389688"/>
<path d="M263.374 219.758C263.076 217.068 262.802 214.376 262.552 211.682C262.499 211.111 261.612 211.209 261.666 211.782C262.554 221.322 263.74 230.834 265.228 240.298C265.648 242.971 266.094 245.641 266.561 248.306C266.66 248.868 267.547 248.774 267.447 248.206C265.791 238.769 264.43 229.281 263.374 219.758Z" fill="#389688"/>
<path d="M263.442 241.881C260.916 234.534 258.391 227.187 255.865 219.84C255.678 219.297 254.848 219.621 255.034 220.164C257.559 227.511 260.085 234.858 262.61 242.205C262.797 242.747 263.628 242.423 263.442 241.881Z" fill="#389688"/>
<path d="M409.451 330.858C408.495 315.974 407.381 301.1 406.11 286.24C405.39 277.824 404.619 269.413 403.799 261.006C403.743 260.435 402.857 260.533 402.913 261.106C404.369 276.026 405.668 290.961 406.806 305.908C407.939 320.78 408.915 335.663 409.733 350.555C410.196 358.989 410.609 367.425 410.971 375.864C410.996 376.437 411.882 376.336 411.857 375.764C411.213 360.788 410.412 345.817 409.451 330.858Z" fill="#389688"/>
<path d="M300.905 332.42C298.375 337.904 295.193 343.072 291.441 347.806C287.71 352.515 283.433 356.788 278.71 360.503C276.031 362.61 273.212 364.534 270.275 366.264C269.78 366.556 270.308 367.275 270.799 366.985C276.044 363.895 280.899 360.177 285.273 355.944C289.659 351.699 293.544 346.935 296.814 341.78C298.645 338.894 300.284 335.892 301.716 332.788C301.958 332.267 301.145 331.899 300.905 332.42Z" fill="#389688"/>
<path d="M405.044 376.88C397.93 368.493 392.575 358.667 389.369 348.147C388.462 345.17 387.734 342.142 387.181 339.079C387.08 338.518 386.192 338.612 386.295 339.179C388.27 350.112 392.496 360.604 398.644 369.859C400.387 372.483 402.286 375.001 404.324 377.404C404.692 377.839 405.416 377.318 405.044 376.88Z" fill="#389688"/>
<path d="M311.926 224.672C305.033 236.309 300.191 249.092 297.592 262.364C297.261 264.054 299.903 264.47 300.234 262.782C302.789 249.736 307.589 237.214 314.363 225.778C315.239 224.296 312.794 223.206 311.926 224.672Z" fill="#F4E9DC"/>
<path d="M389.591 235.256C389.111 233.604 386.621 234.583 387.099 236.228C390.652 248.45 391.745 261.33 390.334 273.977C390.144 275.682 392.784 276.11 392.976 274.395C394.442 261.255 393.281 247.951 389.591 235.256Z" fill="#F4E9DC"/>
<path d="M317.552 259.241C315.68 276.308 313.668 293.36 311.517 310.395C309.376 327.344 307.097 344.275 304.68 361.187C303.325 370.668 301.926 380.142 300.485 389.61C300.399 390.177 301.279 390.318 301.366 389.749C303.95 372.775 306.396 355.78 308.702 338.765C310.996 321.836 313.152 304.889 315.17 287.925C316.301 278.415 317.388 268.9 318.433 259.38C318.495 258.812 317.615 258.669 317.552 259.241Z" fill="#F4E9DC"/>
<path d="M382.185 341.986C381.029 324.166 380.286 306.32 379.958 288.466C379.773 278.406 379.721 268.344 379.798 258.283C379.802 257.711 378.916 257.814 378.912 258.383C378.775 276.24 379.049 294.099 379.739 311.943C380.429 329.787 381.533 347.614 383.05 365.407C383.905 375.432 384.892 385.446 386.008 395.446C386.072 396.015 386.958 395.918 386.894 395.346C384.913 377.598 383.341 359.805 382.185 341.986Z" fill="#F4E9DC"/>
</g>
<defs>
<clipPath id="clip0_8_2">
<rect width="621" height="469" fill="white"/>
</clipPath>
</defs>
</svg>
