<svg width="800" height="800" viewBox="0 0 800 800" fill="none" xmlns="http://www.w3.org/2000/svg">
<path d="M602.32 694.345L399.997 748.823L197.671 694.345L150.983 188.537H649.014L602.32 694.345Z" fill="#2062AF"/>
<path d="M399.996 229.507V705.373L400.453 705.497L564.185 661.408L601.977 229.507H399.996Z" fill="#3C9CD7"/>
<path d="M399.816 355.979L255.006 416.289L259.809 475.999L399.816 416.137L548.747 352.462L554.922 291.38L399.816 355.979Z" fill="white"/>
<path d="M255.005 416.289L259.807 475.999L399.814 416.137V355.979L255.005 416.289Z" fill="url(#paint0_linear_6_2)"/>
<path d="M554.922 291.382L399.816 355.979V416.137L548.747 352.462L554.922 291.382Z" fill="url(#paint1_linear_6_2)"/>
<path d="M255.228 416.289L260.031 475.999L474.854 476.684L470.049 556.297L399.36 576.198L331.407 559.041L327.289 509.625H264.149L272.385 605.024L400.046 642.77L527.015 605.708L543.487 416.289H255.228Z" fill="url(#paint2_linear_6_2)"/>
<path opacity="0.05" d="M399.816 416.289H255.006L259.809 475.999L399.816 476.446V416.289ZM399.816 576.008L399.13 576.2L331.185 559.042L327.068 509.627H263.929L272.164 605.025L399.816 642.771V576.008Z" fill="black"/>
<path d="M241.965 291.382H554.922L548.747 352.464H249.514L241.965 291.382Z" fill="url(#paint3_linear_6_2)"/>
<path opacity="0.05" d="M399.816 291.382H241.965L249.514 352.464H399.816V291.382Z" fill="black"/>
<defs>
<linearGradient id="paint0_linear_6_2" x1="327.41" y1="476.001" x2="327.41" y2="355.981" gradientUnits="userSpaceOnUse">
<stop offset="0.387" stop-color="#D1D3D4" stop-opacity="0"/>
<stop offset="1" stop-color="#D1D3D4"/>
</linearGradient>
<linearGradient id="paint1_linear_6_2" x1="477.367" y1="416.139" x2="477.367" y2="291.383" gradientUnits="userSpaceOnUse">
<stop offset="0.387" stop-color="#D1D3D4" stop-opacity="0"/>
<stop offset="1" stop-color="#D1D3D4"/>
</linearGradient>
<linearGradient id="paint2_linear_6_2" x1="255.228" y1="529.531" x2="543.486" y2="529.531" gradientUnits="userSpaceOnUse">
<stop stop-color="#E8E7E5"/>
<stop offset="1" stop-color="white"/>
</linearGradient>
<linearGradient id="paint3_linear_6_2" x1="241.965" y1="321.923" x2="554.92" y2="321.923" gradientUnits="userSpaceOnUse">
<stop stop-color="#E8E7E5"/>
<stop offset="1" stop-color="white"/>
</linearGradient>
</defs>
</svg>
