<svg width="500" height="561" viewBox="0 0 500 561" fill="none" xmlns="http://www.w3.org/2000/svg">
<path d="M452.32 506.345L249.997 560.823L47.6709 506.345L0.982574 0.537354H499.014L452.32 506.345Z" fill="#2062AF"/>
<path d="M249.996 41.507V517.373L250.453 517.497L414.185 473.408L451.977 41.507H249.996Z" fill="#3C9CD7"/>
<path d="M249.816 167.979L105.006 228.289L109.809 287.999L249.816 228.137L398.747 164.462L404.922 103.38L249.816 167.979Z" fill="white"/>
<path d="M105.005 228.289L109.807 287.999L249.814 228.137V167.979L105.005 228.289Z" fill="url(#paint0_linear_7_2)"/>
<path d="M404.922 103.382L249.816 167.979V228.137L398.747 164.462L404.922 103.382Z" fill="url(#paint1_linear_7_2)"/>
<path d="M105.228 228.289L110.031 287.999L324.854 288.684L320.049 368.297L249.36 388.198L181.407 371.041L177.289 321.625H114.149L122.385 417.024L250.046 454.77L377.015 417.708L393.487 228.289H105.228Z" fill="url(#paint2_linear_7_2)"/>
<path opacity="0.05" d="M249.816 228.289H105.006L109.809 287.999L249.816 288.446V228.289ZM249.816 388.008L249.13 388.2L181.185 371.042L177.068 321.627H113.929L122.164 417.025L249.816 454.771V388.008Z" fill="black"/>
<path d="M91.9648 103.382H404.922L398.747 164.464H99.5135L91.9648 103.382Z" fill="url(#paint3_linear_7_2)"/>
<path opacity="0.05" d="M249.816 103.382H91.9648L99.5135 164.464H249.816V103.382Z" fill="black"/>
<defs>
<linearGradient id="paint0_linear_7_2" x1="177.41" y1="288.001" x2="177.41" y2="167.981" gradientUnits="userSpaceOnUse">
<stop offset="0.387" stop-color="#D1D3D4" stop-opacity="0"/>
<stop offset="1" stop-color="#D1D3D4"/>
</linearGradient>
<linearGradient id="paint1_linear_7_2" x1="327.367" y1="228.139" x2="327.367" y2="103.383" gradientUnits="userSpaceOnUse">
<stop offset="0.387" stop-color="#D1D3D4" stop-opacity="0"/>
<stop offset="1" stop-color="#D1D3D4"/>
</linearGradient>
<linearGradient id="paint2_linear_7_2" x1="105.228" y1="341.531" x2="393.486" y2="341.531" gradientUnits="userSpaceOnUse">
<stop stop-color="#E8E7E5"/>
<stop offset="1" stop-color="white"/>
</linearGradient>
<linearGradient id="paint3_linear_7_2" x1="91.9648" y1="133.923" x2="404.92" y2="133.923" gradientUnits="userSpaceOnUse">
<stop stop-color="#E8E7E5"/>
<stop offset="1" stop-color="white"/>
</linearGradient>
</defs>
</svg>
