<svg width="512" height="512" viewBox="0 0 512 512" fill="none" xmlns="http://www.w3.org/2000/svg">
<rect width="512" height="512" fill="white"/>
<path d="M450 256C450 363.145 363.145 450 256 450C148.855 450 62 363.145 62 256C62 148.855 148.855 62 256 62C363.145 62 450 148.855 450 256Z" fill="#66F05A"/>
<path d="M394.622 293.359C392.457 290.575 389.114 288.945 385.568 288.945H365.707V170.338C365.707 164.075 360.586 159 354.275 159H157.727C151.415 159 146.294 164.075 146.294 170.338V288.945H126.433C122.888 288.945 119.544 290.575 117.38 293.359C115.215 296.144 114.474 299.766 115.376 303.168L126.359 344.547C127.681 349.528 132.221 353 137.413 353H374.588C379.78 353 384.32 349.528 385.642 344.547L396.625 303.168C397.524 299.766 396.786 296.144 394.622 293.359ZM169.159 181.675H342.842V288.945H315.473C312.049 271.245 300.772 256.285 285.383 247.782C289.545 241.956 292.001 234.853 292.001 227.188C292.001 207.501 275.853 191.486 256.001 191.486C236.149 191.486 220 207.501 220 227.188C220 234.853 222.457 241.956 226.619 247.782C211.23 256.285 199.952 271.242 196.528 288.945H169.159V181.675ZM242.865 227.188C242.865 220.005 248.757 214.162 256.001 214.162C263.244 214.162 269.136 220.005 269.136 227.188C269.136 234.371 263.244 240.214 256.001 240.214C248.757 240.214 242.865 234.371 242.865 227.188ZM256.001 262.89C272.807 262.89 287.08 273.849 291.932 288.943H220.066C224.922 273.849 239.194 262.89 256.001 262.89ZM365.773 330.322H146.229L141.263 311.618H370.739L365.773 330.322Z" fill="white"/>
</svg>
