<svg width="24" height="28" viewBox="0 0 24 28" fill="none" xmlns="http://www.w3.org/2000/svg">
<path d="M1.247 25.201L-1 0H23.69L21.44 25.197L11.33 28L1.247 25.201Z" fill="#E44F26"/>
<path d="M11.345 25.858L19.515 23.593L21.437 2.061H11.345V25.858Z" fill="#F1662A"/>
<path d="M11.345 11.407H7.255L6.973 8.242H11.345V5.151H11.334H3.595L3.669 5.981L4.428 14.498H11.345V11.407Z" fill="#EBEBEB"/>
<path d="M11.345 19.434L11.331 19.438L7.889 18.509L7.669 16.044H5.996H4.566L4.999 20.896L11.331 22.654L11.345 22.65V19.434Z" fill="#EBEBEB"/>
<path d="M11.334 11.407V14.498H15.14L14.782 18.507L11.334 19.437V22.653L17.671 20.896L17.717 20.374L18.443 12.237L18.519 11.407H17.686H11.334Z" fill="white"/>
<path d="M11.334 5.151V7.071V8.235V8.242H18.79H18.8L18.862 7.548L19.003 5.981L19.077 5.151H11.334Z" fill="white"/>
</svg>
