<svg width="409" height="368" viewBox="0 0 409 368" fill="none" xmlns="http://www.w3.org/2000/svg">
<path d="M0.474996 247.903C2.347 342.361 85.735 370.301 157.655 367.567C229.575 364.833 217.324 312.342 283.048 311.796C348.772 311.249 405.637 248.37 407.824 170.727C410.011 93.084 397.982 19.27 299.562 3.41299C201.142 -12.444 -3.929 25.727 0.474996 247.903Z" fill="#F7F7F7"/>
<mask id="mask0_1_6" style="mask-type:luminance" maskUnits="userSpaceOnUse" x="0" y="0" width="409" height="368">
<path d="M0.474996 247.903C2.347 342.361 85.735 370.301 157.655 367.567C229.575 364.833 217.324 312.342 283.048 311.796C348.772 311.249 405.637 248.37 407.824 170.727C410.011 93.084 397.982 19.27 299.562 3.41299C201.142 -12.444 -3.929 25.727 0.474996 247.903Z" fill="white"/>
</mask>
<g mask="url(#mask0_1_6)">
<path opacity="0.27" d="M10.312 319.344V273.67H28.576V303.34H53.22V270.748H71.815V303.34H94.795L113.85 284.285H129.943V319.344H146.822V303.34H165.936V330.818H204.229V293.554H228.896V311.855H255.617V273.911H289.809V303.268H329.642H397.515L391.123 375.566L244.746 391.782H71.815L-8.866 367.747L14.878 319.344" fill="#D3D3D3"/>
<path d="M225.711 252.03L175.188 253.577C175.188 253.577 80.615 213.041 87.106 125.587C88.064 112.737 91.191 101.726 95.831 92.281C96.094 91.737 96.372 91.183 96.66 90.644C96.967 90.071 97.26 89.507 97.55 88.956C97.557 88.919 97.575 88.897 97.594 88.863C121.399 45.728 177.516 37.613 193.856 37.106C214.056 36.493 291.87 44.369 305.818 118.899C307.436 127.581 307.873 135.883 307.333 143.796C307.331 143.808 307.331 143.808 307.331 143.808C302.685 212.412 225.711 252.03 225.711 252.03Z" fill="#F4D242"/>
<path d="M207.232 315.124L201.278 315.306C188.936 315.684 178.624 305.984 178.246 293.641L177.032 253.961L227.683 252.412L228.896 292.092C229.274 304.435 219.574 314.746 207.232 315.124Z" fill="#122023"/>
<path d="M231.107 291.869L176.027 293.553C173.097 293.643 170.65 291.34 170.561 288.411C170.472 285.482 172.774 283.035 175.703 282.945L230.783 281.261C233.712 281.171 236.16 283.473 236.249 286.403C236.338 289.331 234.036 291.779 231.107 291.869Z" fill="#0B1416"/>
<path d="M230.517 272.579L175.437 274.263C172.508 274.353 170.061 272.051 169.971 269.122C169.881 266.192 172.183 263.745 175.113 263.655L230.193 261.971C233.123 261.881 235.57 264.184 235.659 267.113C235.748 270.042 233.446 272.489 230.517 272.579Z" fill="#0B1416"/>
<g opacity="0.23">
<path d="M227.617 252.418L177.094 253.965C177.094 253.965 82.521 213.429 89.012 125.975C89.97 113.125 93.097 102.114 97.737 92.669C66.688 156.938 193.664 230.86 216.193 202.265C238.207 174.329 291.239 181.899 309.236 144.196C304.591 212.8 227.617 252.418 227.617 252.418Z" fill="#F74D57"/>
</g>
<path d="M198.011 216.512C238.993 216.512 272.215 183.29 272.215 142.308C272.215 101.326 238.993 68.104 198.011 68.104C157.029 68.104 123.807 101.326 123.807 142.308C123.807 183.29 157.029 216.512 198.011 216.512Z" stroke="white" stroke-width="8" stroke-miterlimit="10" stroke-linecap="round"/>
<path d="M234.588 155.04C229.312 170.302 214.817 181.262 197.762 181.262C176.248 181.262 158.807 163.821 158.807 142.307C158.807 120.793 176.248 103.352 197.762 103.352C213.826 103.352 227.62 113.076 233.577 126.959" stroke="white" stroke-width="8" stroke-miterlimit="10" stroke-linecap="round"/>
<path d="M146.822 206.893C149.035 202.492 147.451 196.154 149.564 192.985C151.677 189.816 154.317 191.137 154.317 191.137C154.317 191.137 157.75 183.743 159.334 184.007C160.918 184.271 160.654 190.081 160.654 190.081C160.654 190.081 161.71 185.328 163.559 186.912C165.407 188.496 163.559 194.042 163.559 194.042C163.559 194.042 165.936 191.571 165.936 195.447C165.936 199.323 164.88 204.429 163.295 206.894C161.711 209.359 156.957 214.904 152.732 217.281C148.507 219.656 146.822 206.893 146.822 206.893Z" fill="#F7B998"/>
<path d="M154.317 191.137L151.412 198.003" stroke="#C66F58" stroke-miterlimit="10" stroke-linecap="round"/>
<path d="M112.06 346.609L119.998 388.861L45.094 377.238L48.218 346.609L82.546 334.62L112.06 346.609Z" fill="#192D33"/>
<path d="M98.318 203.089L91.743 218.562L81.345 222.392L69.507 228.196C69.507 228.196 58.544 203.383 62.969 197.578C63.313 197.136 63.708 196.674 64.17 196.211C69.617 190.646 82.663 184.322 89.009 187.063C95.875 190.032 101.76 196.041 98.318 203.089Z" fill="#192D33"/>
<path d="M98.318 203.09C105.959 194.709 106.79 181.058 96.033 177.913C85.276 174.768 84.41 187.745 84.41 187.745L89.706 195.843L98.318 203.09Z" fill="#192D33"/>
<path d="M81.346 222.392L69.508 228.196C69.508 228.196 58.545 203.383 62.97 197.578C63.314 197.136 63.709 196.674 64.171 196.211C61.678 210.844 67.9 218.523 71.825 217.765C75.75 217.007 74.834 210.754 76.804 210.698C78.707 210.634 82.986 219.908 81.346 222.392Z" fill="#122023"/>
<path d="M98.318 203.09L103.749 221.852L99.085 221.36L98.749 234.124L82.87 232.449L84.752 243.062L68.498 242.095L69.506 228.195L78.629 219.426C78.629 219.426 74.329 211.23 78.169 208.882C82.01 206.534 84.639 215.672 84.639 215.672L86.288 200.035L98.318 203.09Z" fill="#F7B998"/>
<path d="M94.795 225.848C92.247 224.456 91.746 218.565 91.746 218.565" stroke="#C66F58" stroke-miterlimit="10" stroke-linecap="round"/>
<path d="M96.825 206.603L96.416 210.48" stroke="#192D33" stroke-miterlimit="10" stroke-linecap="round"/>
<path d="M98.75 234.125L79.091 227.058L83.78 237.576L82.871 232.45L98.75 234.125Z" fill="#EAA178"/>
<path d="M82.398 214.575C80.892 211.752 79.122 210.923 78.921 212.83C78.72 214.737 82.028 218.086 82.028 218.086L82.398 214.575Z" fill="#EAA178"/>
<path d="M129.275 258.079L95.007 267.393L109.475 334.616L113.43 352.962L48.223 346.608C48.223 346.608 47.649 301.074 52.752 270.748C52.752 270.71 52.765 270.684 52.765 270.646C54.398 261.014 56.605 252.938 59.578 248.345L60.254 238.98L85.987 235.637L87.99 243.662L120.039 237.576L146.818 206.893L156.514 217.584L129.275 258.079Z" fill="#F74D57"/>
<path opacity="0.42" d="M95.013 267.392L76.833 269.762L96.416 273.911L95.013 267.392Z" fill="#AE4046"/>
<path opacity="0.42" d="M113.43 352.962L48.223 346.608C48.223 346.608 47.649 301.074 52.752 270.748C46.041 329.27 88.908 343.329 109.475 334.615L113.43 352.962Z" fill="#AE4046"/>
<path d="M252.878 253.789C248.753 251.25 247.642 242.207 241.613 240.303C235.584 238.399 225.588 239.351 224.795 241.255C224.002 243.159 232.809 243.834 232.809 243.834C232.809 243.834 227.968 255.693 231.459 259.183C234.949 262.673 239.868 263.625 240.661 262.673C241.454 261.721 238.801 260.61 238.801 260.61C238.801 260.61 244.628 263.527 248.277 263.02C251.926 262.515 252.878 253.789 252.878 253.789Z" fill="#F7B998"/>
<path d="M250.422 251.172C246.085 259.519 238.801 260.61 238.801 260.61C238.801 260.61 241.513 263.656 248.277 263.02C255.041 262.384 255.617 253.786 255.617 253.786L250.422 251.172Z" fill="#EAA178"/>
<path d="M338.192 246.822C320.832 251.946 289.809 275.075 289.809 275.075L252.81 252.04L244.746 266.27C244.746 266.27 282.173 301.363 291.469 303.269C298.504 304.711 326.924 283.864 340.329 273.641C346.197 269.166 349.627 262.086 349.131 254.723C348.755 249.133 346.275 244.436 338.192 246.822Z" fill="#1639D0"/>
<path d="M303.83 192.882L310.405 208.355L320.803 212.185L332.641 217.99C332.641 217.99 343.604 193.177 339.179 187.372C338.835 186.93 338.44 186.468 337.978 186.005C332.53 180.44 319.485 174.116 313.139 176.857C306.273 179.825 300.388 185.835 303.83 192.882Z" fill="#192D33"/>
<path d="M320.802 212.185L332.64 217.99C332.64 217.99 343.603 193.177 339.178 187.372C338.834 186.93 338.439 186.468 337.977 186.005C340.469 200.638 334.249 208.317 330.323 207.559C326.398 206.801 327.314 200.548 325.344 200.492C323.441 200.428 319.162 209.701 320.802 212.185Z" fill="#122023"/>
<path d="M303.83 192.883L298.398 211.645L303.062 211.153L303.398 223.917L319.277 222.242L317.395 232.855L333.649 231.888L332.641 217.988L323.518 209.219C323.518 209.219 327.818 201.022 323.978 198.675C320.137 196.327 317.508 205.465 317.508 205.465L315.859 189.828L303.83 192.883Z" fill="#F7B998"/>
<path d="M307.353 215.641C309.901 214.249 311.731 211.999 311.731 211.999" stroke="#C66F58" stroke-miterlimit="10" stroke-linecap="round"/>
<path d="M305.323 196.397L305.732 200.273" stroke="#192D33" stroke-miterlimit="10" stroke-linecap="round"/>
<path d="M303.398 191.859C308.599 195.971 316.266 196.624 314.634 194.014C313.003 191.404 319.75 197.093 319.75 197.093L329.641 194.476C329.641 194.476 314.919 184.39 313.227 184.716C311.535 185.042 303.398 191.859 303.398 191.859Z" fill="#192D33"/>
<path d="M303.398 191.859C297.67 183.411 299.043 170.361 308.878 167.588C318.713 164.815 313.228 172.645 313.228 172.645C313.228 172.645 323.117 167.425 329.642 171.34C336.167 175.255 328.174 176.53 328.174 176.53C328.174 176.53 336.493 179.807 335.351 184.708C334.209 189.609 303.398 191.859 303.398 191.859Z" fill="#192D33"/>
<path d="M303.398 223.918L323.057 216.851L318.368 227.369L319.277 222.243L303.398 223.918Z" fill="#EAA178"/>
<path d="M319.751 204.369C321.257 201.546 323.027 200.717 323.228 202.624C323.429 204.531 320.121 207.88 320.121 207.88L319.751 204.369Z" fill="#EAA178"/>
<path d="M373.773 358.767L289.812 365.018L301.728 299.9L312.573 240.651V230.215L340.233 222.089L342.699 234.965C346.935 236.891 350.943 241.821 352.589 246.185C356.442 256.366 362.356 271.347 365.277 289.987C370.468 323.095 373.773 358.767 373.773 358.767Z" fill="#1639D0"/>
<path opacity="0.48" d="M373.773 358.767L289.812 365.018L301.728 299.9L340.309 273.669C339.39 274.473 309.83 300.716 309.549 318.118C309.256 335.801 361.067 320.644 365.277 289.986C370.468 323.095 373.773 358.767 373.773 358.767Z" fill="#193084"/>
<path d="M42.912 146.747C46.532 146.747 51.187 142.092 51.187 138.472C51.187 142.092 55.842 146.747 59.462 146.747C55.842 146.747 51.187 151.402 51.187 155.022C51.187 151.402 46.533 146.747 42.912 146.747Z" fill="#F74D57"/>
<path d="M343.089 118.546C345.753 118.546 349.179 115.12 349.179 112.456C349.179 115.12 352.605 118.546 355.269 118.546C352.605 118.546 349.179 121.972 349.179 124.636C349.179 121.971 345.753 118.546 343.089 118.546Z" fill="#F74D57"/>
<path d="M91.117 258.387C91.117 260.232 93.489 262.604 95.334 262.604C93.489 262.604 91.117 264.976 91.117 266.821C91.117 264.976 88.745 262.604 86.9 262.604C88.745 262.603 91.117 260.232 91.117 258.387Z" fill="#F74D57"/>
<path d="M228.863 227.068C231.527 227.068 234.953 223.642 234.953 220.978C234.953 223.642 238.379 227.068 241.043 227.068C238.379 227.068 234.953 230.494 234.953 233.158C234.953 230.494 231.527 227.068 228.863 227.068Z" fill="#F74D57"/>
<path d="M278.55 41.832C283.477 41.832 289.812 35.497 289.812 30.57C289.812 35.497 296.147 41.832 301.074 41.832C296.147 41.832 289.812 48.167 289.812 53.094C289.811 48.167 283.477 41.833 278.55 41.832Z" fill="#F74D57"/>
</g>
</svg>
