<svg width="55" height="54" viewBox="0 0 55 54" fill="none" xmlns="http://www.w3.org/2000/svg">
<rect width="55" height="54" fill="white"/>
<path d="M21.204 22.122L16.297 24.837C16.113 24.938 16 25.126 16 25.329V30.762C16 30.965 16.113 31.152 16.297 31.254L21.205 33.971C21.388 34.072 21.615 34.072 21.798 33.971L26.705 31.254C26.887 31.152 27 30.965 27 30.762V25.329C27 25.126 26.887 24.939 26.703 24.837L21.797 22.122C21.705 22.071 21.602 22.046 21.5 22.046C21.397 22.046 21.295 22.071 21.203 22.122M46.451 27.013L45.633 27.465C45.602 27.482 45.584 27.513 45.584 27.547V28.453C45.584 28.487 45.603 28.518 45.633 28.535L46.451 28.988C46.482 29.005 46.519 29.005 46.55 28.988L47.368 28.535C47.398 28.518 47.417 28.487 47.417 28.453V27.547C47.417 27.513 47.398 27.482 47.367 27.465L46.549 27.013C46.534 27.004 46.517 27 46.5 27C46.483 27 46.466 27.004 46.451 27.013Z" fill="#388E3C"/>
<path d="M39.751 16.364L37.362 15.031C37.287 14.989 37.195 14.99 37.121 15.034C37.047 15.078 37.001 15.157 37.001 15.243L37 23.295L34.797 22.076C34.705 22.025 34.602 22 34.5 22C34.398 22 34.295 22.025 34.203 22.076H34.204L29.297 24.791C29.113 24.892 29 25.08 29 25.282V30.715C29 30.918 29.113 31.105 29.297 31.207L34.205 33.924C34.388 34.025 34.615 34.025 34.798 33.924L39.705 31.207C39.887 31.106 40 30.918 40 30.715V16.788C40 16.612 39.904 16.45 39.751 16.364ZM36.866 29.458L34.636 30.693C34.553 30.739 34.45 30.739 34.367 30.693L32.136 29.458C32.051 29.412 32 29.326 32 29.234V26.764C32 26.672 32.051 26.587 32.135 26.54L34.366 25.306C34.408 25.283 34.453 25.272 34.5 25.272C34.547 25.272 34.593 25.284 34.635 25.306L36.865 26.54C36.949 26.587 37 26.673 37 26.765V29.235C37 29.326 36.949 29.412 36.866 29.458Z" fill="#37474F"/>
<path d="M21.204 22.122L16 30.762C16 30.965 16.113 31.152 16.297 31.254L21.205 33.971C21.388 34.072 21.615 34.072 21.798 33.971L27 25.329C27 25.126 26.887 24.939 26.703 24.837L21.797 22.122C21.705 22.071 21.602 22.046 21.5 22.046C21.397 22.046 21.295 22.071 21.203 22.122" fill="#2E7D32"/>
<path d="M21.204 22.122L16.297 24.837C16.113 24.938 16 25.126 16 25.329L21.204 33.971C21.387 34.072 21.614 34.072 21.797 33.971L26.704 31.254C26.887 31.152 27 30.965 27 30.762L21.797 22.122C21.705 22.071 21.602 22.046 21.5 22.046C21.397 22.046 21.295 22.071 21.203 22.122" fill="#4CAF50"/>
<path d="M51.703 24.791L46.797 22.076C46.705 22.025 46.602 22 46.5 22C46.398 22 46.295 22.025 46.203 22.076L41.297 24.791C41.114 24.892 41 25.084 41 25.294V30.705C41 30.914 41.114 31.107 41.297 31.208L46.205 33.925C46.389 34.027 46.614 34.027 46.798 33.925L49.061 32.672C49.268 32.557 49.267 32.26 49.059 32.146L44.135 29.459C44.052 29.412 44 29.325 44 29.231V26.765C44 26.673 44.05 26.588 44.13 26.544L46.365 25.308H46.364C46.406 25.285 46.452 25.274 46.499 25.274C46.546 25.274 46.592 25.286 46.634 25.308L48.869 26.545C48.949 26.589 48.999 26.674 48.999 26.766V28.778C48.999 28.864 49.045 28.944 49.12 28.987C49.195 29.029 49.287 29.029 49.362 28.986L51.76 27.593C51.908 27.507 52 27.348 52 27.176V25.296C52 25.085 51.886 24.892 51.703 24.791ZM14.703 24.791L9.797 22.076C9.705 22.025 9.602 22 9.5 22C9.398 22 9.295 22.025 9.203 22.076L4.297 24.791C4.114 24.892 4 25.084 4 25.294V32.759C4 32.845 4.046 32.925 4.121 32.968C4.196 33.01 4.288 33.01 4.363 32.967L6.761 31.574C6.909 31.488 7 31.329 7 31.157V26.764C7 26.672 7.05 26.587 7.13 26.543L9.365 25.307C9.407 25.284 9.453 25.273 9.5 25.273C9.547 25.273 9.593 25.285 9.635 25.307L11.87 26.544C11.95 26.588 12 26.673 12 26.765V31.158C12 31.33 12.091 31.489 12.24 31.575L14.638 32.968C14.713 33.011 14.805 33.011 14.88 32.969C14.954 32.925 15 32.845 15 32.759V25.295C15 25.085 14.886 24.892 14.703 24.791Z" fill="#37474F"/>
</svg>
