<svg width="28" height="28" viewBox="0 0 28 28" fill="none" xmlns="http://www.w3.org/2000/svg">
<path fill-rule="evenodd" clip-rule="evenodd" d="M14 0C16.7689 0 19.4757 0.821086 21.778 2.35943C24.0803 3.89777 25.8747 6.08427 26.9343 8.64243C27.9939 11.2006 28.2712 14.0155 27.731 16.7313C27.1908 19.447 25.8574 21.9416 23.8995 23.8995C21.9416 25.8574 19.447 27.1908 16.7313 27.731C14.0155 28.2712 11.2006 27.9939 8.64243 26.9343C6.08427 25.8747 3.89777 24.0803 2.35943 21.778C0.821086 19.4757 0 16.7689 0 14C0 10.287 1.475 6.72601 4.1005 4.1005C6.72601 1.475 10.287 0 14 0Z" fill="#CC6699"/>
<path d="M22.782 5.99201C22.148 3.50601 18.025 2.69201 14.123 4.07401C11.6793 4.89516 9.42156 6.1902 7.479 7.88501C5.33 9.89501 4.987 11.645 5.128 12.376C5.628 14.956 9.161 16.642 10.614 17.893V17.9C10.186 18.111 7.05 19.7 6.314 21.32C5.54 23.032 6.437 24.26 7.032 24.425C7.92532 24.6401 8.86356 24.5701 9.71508 24.2248C10.5666 23.8796 11.2887 23.2765 11.78 22.5C12.1861 21.8709 12.4401 21.156 12.522 20.4117C12.6039 19.6675 12.5115 18.9143 12.252 18.212C12.9519 18.0342 13.6794 17.9924 14.395 18.089C16.851 18.376 17.333 19.909 17.241 20.551C17.1977 20.7795 17.1058 20.9961 16.9713 21.1859C16.8369 21.3757 16.6632 21.5343 16.462 21.651C16.29 21.758 16.237 21.794 16.252 21.874C16.273 21.989 16.352 21.985 16.499 21.96C16.8681 21.8438 17.1933 21.6184 17.4318 21.3137C17.6703 21.009 17.8108 20.6392 17.835 20.253C17.894 18.753 16.453 17.067 13.901 17.11C13.1598 17.0888 12.4202 17.1902 11.712 17.41C11.677 17.37 11.641 17.33 11.604 17.29C10.026 15.607 7.11 14.416 7.233 12.153C7.278 11.33 7.564 9.16401 12.833 6.53601C17.153 4.38301 20.611 4.97601 21.209 6.28901C22.063 8.16501 19.361 11.65 14.875 12.153C14.3792 12.2537 13.867 12.2414 13.3766 12.1171C12.8862 11.9928 12.43 11.7597 12.042 11.435C11.806 11.175 11.771 11.164 11.683 11.212C11.54 11.291 11.631 11.521 11.683 11.657C11.8548 11.9666 12.0866 12.2387 12.365 12.4575C12.6434 12.6763 12.9626 12.8373 13.304 12.931C15.0678 13.3143 16.9075 13.1323 18.562 12.411C21.283 11.362 23.405 8.43701 22.782 5.99201ZM11.218 18.663C11.4166 19.3477 11.4065 20.0761 11.189 20.755C11.1657 20.8257 11.14 20.8957 11.112 20.965C11.084 21.0343 11.0537 21.101 11.021 21.165C10.8527 21.5093 10.6347 21.8271 10.374 22.108C9.561 22.995 8.424 23.331 7.937 23.048C7.411 22.743 7.674 21.492 8.617 20.495C9.34158 19.7785 10.177 19.1835 11.091 18.733L11.218 18.663Z" fill="white"/>
</svg>
