<svg width="28" height="28" viewBox="0 0 28 28" fill="none" xmlns="http://www.w3.org/2000/svg">
<path d="M27.01 3.02999L21.244 0.253988C20.9184 0.096986 20.552 0.0451753 20.1956 0.105738C19.8392 0.1663 19.5105 0.336236 19.255 0.591988L0.38 17.8C0.150991 18.0078 0.0139072 18.298 -0.00109559 18.6069C-0.0160984 18.9158 0.0922085 19.218 0.3 19.447C0.325 19.474 0.35 19.5 0.377 19.524L1.918 20.924C2.11936 21.1073 2.37856 21.2142 2.65056 21.2263C2.92257 21.2383 3.19021 21.1547 3.407 20.99L26.142 3.74999C26.3137 3.61968 26.5184 3.53989 26.733 3.5196C26.9476 3.49932 27.1636 3.53934 27.3567 3.63516C27.5498 3.73098 27.7124 3.8788 27.826 4.06198C27.9397 4.24516 27.9999 4.45642 28 4.67199V4.60499C28 4.27589 27.9071 3.95348 27.7319 3.67485C27.5568 3.39622 27.3065 3.1727 27.01 3.02999Z" fill="#0065A9"/>
<path d="M27.01 24.97L21.244 27.747C20.9183 27.9036 20.552 27.9551 20.1957 27.8946C19.8394 27.834 19.5107 27.6644 19.255 27.409L0.38 10.2C0.150991 9.99219 0.0139072 9.70193 -0.00109559 9.39306C-0.0160984 9.08419 0.0922085 8.78201 0.3 8.55299C0.325 8.52599 0.35 8.49999 0.377 8.47599L1.918 7.07599C2.11957 6.89195 2.37935 6.78453 2.65203 6.77247C2.92471 6.76041 3.19297 6.84447 3.41 7.00999L26.142 24.25C26.3137 24.3803 26.5184 24.4601 26.733 24.4804C26.9476 24.5007 27.1636 24.4606 27.3567 24.3648C27.5498 24.269 27.7124 24.1212 27.826 23.938C27.9397 23.7548 27.9999 23.5436 28 23.328V23.4C27.9989 23.7282 27.9055 24.0495 27.7304 24.3271C27.5554 24.6048 27.3057 24.8276 27.01 24.97Z" fill="#007ACC"/>
<path d="M21.244 27.747C20.9183 27.9036 20.552 27.9551 20.1957 27.8946C19.8394 27.834 19.5107 27.6644 19.255 27.409C19.3986 27.5507 19.5808 27.6469 19.7789 27.6855C19.9769 27.7241 20.182 27.7034 20.3683 27.626C20.5546 27.5486 20.7139 27.4179 20.8263 27.2504C20.9387 27.0828 20.9991 26.8858 21 26.684V1.316C21.0002 1.11329 20.9402 0.915089 20.8276 0.746507C20.715 0.577925 20.555 0.446546 20.3677 0.369014C20.1804 0.291482 19.9743 0.271284 19.7755 0.31098C19.5767 0.350677 19.3942 0.44848 19.251 0.592001C19.5065 0.336342 19.8352 0.166396 20.1915 0.105665C20.5478 0.044934 20.9142 0.0964196 21.24 0.253001L27.005 3.025C27.3025 3.167 27.5537 3.39022 27.7298 3.6689C27.9059 3.94758 27.9995 4.27037 28 4.6V23.4C28.0001 23.7294 27.9071 24.0521 27.7318 24.3309C27.5564 24.6097 27.3059 24.8334 27.009 24.976L21.244 27.747Z" fill="#1F9CF0"/>
</svg>
