<svg width="377" height="398" viewBox="0 0 377 398" fill="none" xmlns="http://www.w3.org/2000/svg">
<g clip-path="url(#clip0_7_33)">
<path d="M123.127 13.502H21.03V55.04H123.127V13.502Z" fill="#7F5AF0"/>
<path d="M123.127 63.744H21.03V105.282H123.127V63.744Z" fill="#7F5AF0"/>
<path d="M232.048 13.502H129.951V55.04H232.048V13.502Z" fill="#7F5AF0"/>
<path d="M232.048 63.744H129.951V105.282H232.048V63.744Z" fill="#7F5AF0"/>
<path d="M340.97 13.502H238.873V55.04H340.97V13.502Z" fill="#7F5AF0"/>
<path d="M340.97 63.744H238.873V105.282H340.97V63.744Z" fill="#7F5AF0"/>
<path d="M104.762 268.925L92.193 397.588C95.863 397.588 99.04 394.545 99.83 390.271L118.631 288.56H147.235V268.925H104.762Z" fill="#E5AF70"/>
<path d="M189.708 268.925L202.277 397.588C198.607 397.588 195.43 394.545 194.64 390.271L175.839 288.56H147.235V268.925H189.708Z" fill="#E5AF70"/>
<path d="M85.347 268.925L72.778 397.588C76.448 397.588 79.625 394.545 80.415 390.271L99.215 288.56H127.819V268.925H85.347Z" fill="#E5AF70"/>
<path d="M192.708 268.925H84.094C81.464 268.925 79.332 266.793 79.332 264.163C79.332 259.944 82.752 256.524 86.971 256.524H189.832C194.051 256.524 197.471 259.944 197.471 264.163C197.471 266.793 195.339 268.925 192.708 268.925Z" fill="#E5AF70"/>
<path d="M138.601 215.819L132.939 256.524H138.601L144.893 208.661L138.601 215.819Z" fill="#E5AF70"/>
<path d="M138.601 256.524H143.32L147.725 202.894L144.893 208.661L138.601 256.524Z" fill="#E5AF70"/>
<path d="M71.332 215.819L91.765 288.561H83.429L63.797 208.661L71.332 215.819Z" fill="#E5AF70"/>
<path d="M83.429 288.561H79.332L60.407 202.894L63.797 208.661L83.429 288.561Z" fill="#E5AF70"/>
<path d="M111.605 227.499H93.692C69.113 227.499 49.188 207.574 49.188 182.996V180.282C49.188 175.565 53.012 171.741 57.729 171.741H147.567C152.284 171.741 156.108 175.565 156.108 180.282V182.996C156.108 207.574 136.184 227.499 111.605 227.499Z" fill="#E5AF70"/>
<path d="M191.626 288.561L189.708 268.925H147.235V288.561H191.626Z" fill="#E5AF70"/>
<path d="M170.293 268.925L182.862 397.588C179.192 397.588 176.015 394.545 175.225 390.271L156.425 288.56H127.82V268.925H170.293Z" fill="#E5AF70"/>
<path d="M228.867 350.262H339.87L335.374 334.971H233.145L228.867 350.262Z" fill="#E5AF70"/>
<path d="M244.708 229.582L219.606 397.589C222.265 397.589 224.498 395.131 224.787 391.885L264.353 229.582H244.708Z" fill="#E5AF70"/>
<path d="M324.029 229.582L349.131 397.589C346.472 397.589 344.239 395.131 343.95 391.885L304.384 229.582H324.029Z" fill="#E5AF70"/>
<path d="M173.608 154.57C173.091 153.767 172.565 152.929 172.029 152.045C167.032 143.814 159.211 134.743 144.813 132.045L147.467 154.656L159.544 165.863C160.525 159.495 168.277 152.608 173.608 154.57Z" fill="#FF6A66"/>
<path d="M173.608 154.57C168.277 152.608 160.525 159.495 159.544 165.864L176.728 181.812C187.433 174.24 193.7 177.895 193.7 177.895C187.563 170.285 181.739 167.194 173.608 154.57Z" fill="#FC9A80"/>
<path d="M145.666 139.312L147.467 154.657L159.544 165.864C159.789 164.272 160.458 162.647 161.406 161.136C154.007 153.5 152.134 148.463 146.221 137.763L145.666 139.312Z" fill="#8E3948"/>
<path d="M176.729 181.812C178.246 180.739 179.671 179.898 181.004 179.234C177.079 176.002 171.218 171.234 161.406 161.137C160.458 162.648 159.79 164.272 159.544 165.865L176.729 181.812Z" fill="#D67363"/>
<path d="M87.427 135.267C95.448 129.134 112.63 134.094 117.094 128.795C121.558 123.495 136.254 128.989 139.943 130.457C142.108 131.318 143.152 131.677 144.812 132.047C146.437 132.409 151.839 149.492 152.646 162.682C153.941 183.848 134.764 201.231 145.616 213.634C149.501 218.074 152.709 221.034 152.709 221.034C152.709 221.034 147.651 227.474 136.181 227.474C124.711 227.474 100.846 218.074 85.121 233.984C85.121 233.984 84.483 231.209 93.312 218.814C102.141 206.419 101.216 201.979 98.626 194.579C96.037 187.178 77.893 142.558 87.427 135.267Z" fill="#FF6A66"/>
<path d="M103.877 202.348C105.021 196.617 107.617 187.087 105.67 171.952C104.18 160.374 106.009 156.514 103.417 147.016L84.731 142.362C83.905 157.36 96.5 188.502 98.627 194.577C101.217 201.977 102.142 206.417 93.313 218.812C84.484 231.207 85.122 233.982 85.122 233.982C91.87 227.155 100.116 224.994 108.238 224.745L108.241 224.742C93.99 225.679 101.957 211.968 103.877 202.348Z" fill="#8E3948"/>
<path d="M159.428 97.802C159.632 96.122 157.577 94.397 156.226 95.416C158.059 94.305 158.734 91.641 157.651 89.791C157.281 89.159 156.723 88.564 156.734 87.831C156.749 86.786 157.859 86.163 158.519 85.353C159.766 83.822 159.329 81.429 158.072 79.905C156.815 78.382 154.949 77.522 153.149 76.711C155.694 75.568 156.628 71.863 154.927 69.651C153.227 67.439 149.407 67.386 147.647 69.552C147.966 68.728 146.605 68.137 145.884 68.648C145.164 69.159 144.959 70.114 144.623 70.931C144.287 71.748 143.534 72.593 142.677 72.377C141.521 72.085 141.668 70.272 142.54 69.457C143.412 68.642 144.667 68.292 145.435 67.379C147.143 65.349 144.89 61.901 142.237 61.877C139.584 61.853 137.411 64.147 136.473 66.629C137.965 64.433 137.306 61.071 135.095 59.601C132.884 58.131 129.529 58.824 128.081 61.05C128.078 58.704 125.754 56.762 123.408 56.779C121.062 56.796 118.929 58.455 117.903 60.564C116.876 62.674 116.823 65.148 117.268 67.451C114.023 67.333 110.635 67.244 107.698 68.629C104.762 70.014 102.481 73.374 103.444 76.475C103.863 77.823 104.837 78.997 104.975 80.402C105.288 83.604 101.51 85.363 98.683 86.9C95.626 88.563 92.856 91.343 92.521 94.806C92.186 98.27 95.344 102.014 98.737 101.241C100.594 100.817 102.633 99.262 104.136 100.433C105.222 101.279 105.044 103.019 104.333 104.198C103.622 105.376 102.514 106.288 101.877 107.508C100.796 109.575 101.417 112.399 103.307 113.766C105.197 115.133 108.129 114.804 109.617 113.008C108.076 115.196 108.724 118.608 110.96 120.079C113.196 121.55 116.585 120.794 117.984 118.512C118.399 120.683 119.35 123.357 121.555 123.495C123.789 123.635 125.068 121.019 125.561 118.836C126.054 116.653 126.773 113.996 128.948 113.469C132.369 112.64 134.434 116.231 137.661 113.35C139.842 111.404 140.768 108.799 143.429 107.23C145.565 105.97 148.002 105.208 150.186 104.009C152.805 102.572 158.997 101.361 159.428 97.802Z" fill="#33252F"/>
<path d="M119.172 105.322C119.38 114.462 117.718 125.263 117.095 128.795C116.472 132.326 118.76 158.707 133.299 158.707C147.838 158.707 145.138 138.558 139.944 130.457L137.451 129.211L139.944 116.332L124.78 103.028L119.172 105.322Z" fill="#FC9A80"/>
<path d="M137.451 129.21L139.944 116.331L124.78 103.027L119.171 105.322C119.379 114.462 117.717 125.263 117.094 128.795C118.133 123.394 121.041 117.37 124.987 121.732C128.335 125.432 131.976 130.888 137.451 129.21Z" fill="#D67363"/>
<path d="M149.043 88.607C153.166 94.967 150.035 117.175 142.893 119.952C135.977 122.641 127.201 116.774 122.689 106.672C122.539 106.337 122.078 106.333 121.926 106.667C121.597 107.388 120.983 108.262 119.913 108.42C118.344 108.652 115.714 107.447 115.714 102.097C116.56 103.127 118.791 102.348 119.829 101.512C120.867 100.676 121.667 99.493 122.901 98.989C123.595 98.706 124.363 98.668 125.087 98.474C128.038 97.683 129.75 93.913 128.404 91.17C128.577 91.536 129.193 91.288 129.293 90.896C129.394 90.504 129.223 90.095 129.222 89.69C129.219 88.596 130.435 87.878 131.527 87.811C132.619 87.744 133.709 88.084 134.799 87.989C135.889 87.894 137.077 87.1 136.991 86.009C137.183 87.47 138.654 88.638 140.121 88.495C141.587 88.351 142.804 86.919 142.708 85.449C142.558 86.434 143.26 87.474 144.229 87.702C145.198 87.931 146.291 87.315 146.597 86.367C146.554 87.456 148.451 87.694 149.043 88.607Z" fill="#FC9A80"/>
<path d="M103.391 164.083C103.167 162.176 103.14 159.954 103.546 157.391C105.925 142.363 100.726 131.043 91.865 132.98C86.605 134.13 82.748 138.657 82.748 153.985C82.748 158.767 83.225 163.034 83.972 166.823C89.377 163.182 97.133 161.151 103.391 164.083Z" fill="#FF6A66"/>
<path d="M181.984 185.638C180.58 182.754 178.356 178.737 176.015 176.692C172.115 173.286 161.391 178.395 154.617 178.395C147.842 178.395 136.369 178.395 127.886 175.84C119.403 173.285 107.122 173.001 107.122 173.001C107.122 173.001 104.11 170.188 103.392 164.082C97.133 161.151 89.377 163.181 83.973 166.822C86.047 177.342 90.26 184.07 92.554 187.099C93.442 188.271 94.937 188.976 96.547 188.976H116.462C130.676 188.976 147.419 186.343 150.25 186.343C153.082 186.343 156.193 188.976 158.809 188.976C161.425 188.976 161.717 187.762 164.317 186.343C166.224 185.302 168.83 187.205 170.084 188.293C170.595 188.736 171.284 188.976 172.004 188.976H179.449C181.419 188.976 182.755 187.223 181.984 185.638Z" fill="#FC9A80"/>
<path d="M249.864 185.048H144.169C144.169 187.218 145.928 188.976 148.097 188.976H245.935C248.105 188.976 249.864 187.217 249.864 185.048Z" fill="#33252F"/>
<path d="M176.286 188.976H246.196C248.504 188.976 250.472 187.301 250.841 185.023L259.244 133.105C259.599 130.912 257.905 128.922 255.683 128.922H185.773C183.465 128.922 181.497 130.597 181.128 132.875L172.725 184.793C172.371 186.986 174.064 188.976 176.286 188.976Z" fill="#463840"/>
<path d="M152.71 221.033C192.396 235.338 205.597 247.863 207.097 257.762C209.629 274.471 213.329 283.173 213.329 305.797C213.329 328.421 212.596 376.789 212.596 376.789H198.226C198.226 376.789 199.32 358.397 193.268 327.467C186.977 295.317 184.166 279.135 185.489 266.578C185.664 264.916 184.757 263.371 183.352 262.924C179.425 261.673 169.661 259.774 146.573 259.774L125.605 227.03L152.71 221.033Z" fill="#463840"/>
<path d="M190.373 281.902C190.373 270.641 195.152 260.003 188.361 256.249C183.012 253.292 171.495 237.459 137.774 224.338L134.417 225.081L129.843 234.05L146.575 259.775C169.662 259.775 179.426 261.674 183.354 262.925C184.759 263.372 185.666 264.917 185.491 266.579C184.168 279.136 186.691 295.394 193.27 327.468C198.595 353.428 198.228 376.79 198.228 376.79H212.598C212.598 376.79 212.931 357.346 213.148 334.742C204.21 320.097 190.373 289.527 190.373 281.902Z" fill="#33252F"/>
<path d="M198.227 376.789C198.227 378.385 197.779 380.268 197.252 382.312C200.945 382.48 205.593 376.789 208.836 376.789H198.227Z" fill="#FC9A80"/>
<path d="M232.618 389.832C230.125 387.246 219.26 382.72 217.852 380.953C214.535 376.789 212.597 376.789 212.597 376.789H208.836C205.593 376.789 200.946 382.48 197.252 382.312C196.033 387.035 194.383 392.625 196.807 397.589H235.287C235.287 397.589 235.111 392.417 232.618 389.832Z" fill="#8E3948"/>
<path d="M214.516 373.166L221.039 374.612V363.23L213.33 367.432L214.516 373.166Z" fill="#FC9A80"/>
<path d="M85.122 235.899C79.31 248.44 89.914 259.775 99.091 259.775C114.686 259.775 140.172 259.775 146.575 259.775C152.979 259.775 157.074 269.789 159.544 284.407C164.35 312.848 179.954 328.981 195.748 349.71C211.542 370.439 214.516 373.166 214.516 373.166L226.322 360.2C226.322 360.2 217.867 350.4 203.724 321.958C189.581 293.516 186.497 283.625 181 259.774C175.503 235.923 131.246 225.062 131.246 225.062C131.246 225.062 93.849 217.067 85.122 235.899Z" fill="#463840"/>
<path d="M214.516 373.166C217.531 377.589 217.841 381.383 221.132 383.128C224.423 384.873 226.865 386.707 230.969 388.539C235.073 390.372 246.514 384.291 247.887 380.852C249.26 377.413 245.141 371.109 243.006 370.058C240.87 369.007 229.47 362.003 226.322 357.975C223.175 353.948 218.598 361.827 219.361 367.956C220.124 374.086 214.516 373.166 214.516 373.166Z" fill="#8E3948"/>
<path d="M239.322 387.189C232.05 386.942 225.398 382.793 217.877 372.502C216.436 373.472 214.517 373.166 214.517 373.166C217.532 377.589 217.842 381.383 221.133 383.128C224.424 384.873 226.866 386.707 230.97 388.539C232.805 389.359 236.108 388.594 239.321 387.192L239.322 387.189Z" fill="#692332"/>
<path d="M324.028 205.117H37.971V229.581H324.028V205.117Z" fill="#FFD994"/>
<path d="M324.028 205.117H37.971V217.349H324.028V205.117Z" fill="#E5AF70"/>
<path d="M361.616 188.976H0.382996V205.117H361.616V188.976Z" fill="#FFD994"/>
<path d="M361.616 197.047H0.382996V205.118H361.616V197.047Z" fill="#E5AF70"/>
<path d="M22.13 350.262H133.133L128.637 334.971H26.408L22.13 350.262Z" fill="#FFD994"/>
<path d="M37.971 229.582L12.869 397.589C15.528 397.589 17.761 395.131 18.05 391.885L57.616 229.582H37.971Z" fill="#FFD994"/>
<path d="M117.292 229.582L142.394 397.589C139.735 397.589 137.502 395.131 137.213 391.885L97.647 229.582H117.292Z" fill="#FFD994"/>
<path d="M254.253 45.269L244.747 145.467H294.54L304.046 45.269H254.253Z" fill="#F1F1F1"/>
<path d="M258.327 45.269L248.821 145.467H298.614L308.119 45.269H258.327Z" fill="#E8E0E4"/>
<path d="M282.572 111.302L275.635 184.424H291.646L298.583 111.302H282.572Z" fill="#E8E0E4"/>
<path d="M298.583 111.302L293.839 98.485H277.828L282.572 111.302H298.583Z" fill="#F1F1F1"/>
<path d="M282.572 111.302L275.635 184.424H269.675L277.828 98.485L282.572 111.302Z" fill="#F1F1F1"/>
<path d="M241.126 188.976H296.803C296.803 186.462 294.765 184.424 292.251 184.424H245.678C243.164 184.424 241.126 186.462 241.126 188.976Z" fill="#F1F1F1"/>
<path d="M44.769 155.791L42.041 188.976H28.445L25.717 155.791H44.769Z" fill="#E5AF70"/>
<path d="M46.953 153.512H23.533V155.791H46.953V153.512Z" fill="#D67363"/>
<path d="M45.18 153.512L43.203 151.079H27.283L25.306 153.512H45.18Z" fill="#D67363"/>
<path d="M25.306 153.512L26.294 152.296H44.191L45.18 153.512H25.306Z" fill="#8E3948"/>
<path d="M43.122 175.829H27.364L26.648 167.12H43.838L43.122 175.829Z" fill="#FFD994"/>
<path d="M35.243 177.182C38.3954 177.182 40.951 174.626 40.951 171.474C40.951 168.322 38.3954 165.766 35.243 165.766C32.0906 165.766 29.535 168.322 29.535 171.474C29.535 174.626 32.0906 177.182 35.243 177.182Z" fill="#F1F1F1"/>
<path d="M88.459 102.583L117.156 84.271C117.713 83.916 117.823 83.148 117.389 82.65L93.53 55.273C93.179 54.87 92.585 54.784 92.134 55.072L72.519 67.588C72.068 67.876 71.896 68.45 72.113 68.938L86.89 102.111C87.16 102.715 87.902 102.939 88.459 102.583Z" fill="#573DA8"/>
<path d="M81.2051 62.0465L83.4517 60.613L70.3447 40.0717L68.0981 41.5052L81.2051 62.0465Z" fill="#FFD994"/>
<path d="M37.257 81.831C37.257 83.215 38.098 84.337 39.135 84.337C40.172 84.337 41.013 83.215 41.013 81.831C41.013 80.447 40.172 79.325 39.135 79.325C38.098 79.325 37.257 80.447 37.257 81.831Z" fill="#E5AF70"/>
<path d="M43.317 79.325C44.354 79.325 45.195 80.447 45.195 81.831C45.195 83.215 44.354 84.337 43.317 84.337H39.135C40.172 84.337 41.013 83.215 41.013 81.831C41.013 80.447 40.172 79.325 39.135 79.325H43.317Z" fill="#FFD994"/>
<path d="M40.383 79.325L74.573 49.717L76.974 52.402L42.882 81.831C42.882 81.831 42.236 82.243 41.766 81.162C41.014 79.432 40.383 79.325 40.383 79.325Z" fill="#FFD994"/>
<path d="M44.039 84.337L61.388 183.819L57.84 184.438L40.383 84.337C40.383 84.337 40.88 83.188 42.873 83.421C43.931 83.545 44.039 84.337 44.039 84.337Z" fill="#FFD994"/>
<path d="M34.1797 188.976H82.7157V183.819H34.1797V188.976Z" fill="#573DA8"/>
<path d="M198.71 0.964996H146.647C141.988 0.964996 138.211 4.742 138.211 9.402V55.854L142.986 48.974C145.28 45.669 149.047 43.697 153.071 43.697H198.711C203.37 43.697 207.147 39.92 207.147 35.261V9.402C207.147 4.742 203.37 0.964996 198.71 0.964996Z" fill="#463840"/>
<path d="M156.009 29.926C155.392 30.749 154.4 31.16 153.035 31.16C151.669 31.16 150.678 30.749 150.061 29.926C149.443 29.103 149.135 27.894 149.135 26.3V18.058C149.135 16.543 149.447 15.404 150.071 14.643C150.695 13.882 151.683 13.501 153.035 13.501C154.387 13.501 155.375 13.882 155.999 14.643C156.623 15.404 156.935 16.543 156.935 18.058V26.3C156.936 27.894 156.627 29.103 156.009 29.926ZM153.011 28.897C153.426 28.897 153.746 28.735 153.971 28.412C154.197 28.089 154.309 27.401 154.309 26.349V17.951C154.302 16.677 154.005 15.962 153.417 15.805C153.299 15.779 153.111 15.766 152.854 15.766C152.596 15.766 152.348 15.893 152.109 16.148C151.871 16.403 151.752 17 151.752 17.941V26.349C151.752 27.421 151.858 28.113 152.07 28.427C152.282 28.74 152.596 28.897 153.011 28.897Z" fill="#7F5AF0"/>
<path d="M160.551 30.955V16.961C160.329 17.229 160.015 17.436 159.61 17.583C159.205 17.73 158.807 17.804 158.415 17.804V15.854C158.97 15.775 159.498 15.55 159.998 15.178C160.498 14.806 160.878 14.312 161.14 13.699H163.178V30.956L160.551 30.955Z" fill="#7F5AF0"/>
<path d="M172.531 29.926C171.914 30.749 170.922 31.16 169.557 31.16C168.191 31.16 167.2 30.749 166.583 29.926C165.965 29.103 165.657 27.894 165.657 26.3V18.058C165.657 16.543 165.969 15.404 166.593 14.643C167.217 13.882 168.205 13.501 169.557 13.501C170.909 13.501 171.897 13.882 172.521 14.643C173.145 15.404 173.457 16.543 173.457 18.058V26.3C173.458 27.894 173.148 29.103 172.531 29.926ZM169.533 28.897C169.948 28.897 170.268 28.735 170.493 28.412C170.719 28.089 170.831 27.401 170.831 26.349V17.951C170.824 16.677 170.527 15.962 169.939 15.805C169.821 15.779 169.633 15.766 169.376 15.766C169.118 15.766 168.87 15.893 168.631 16.148C168.393 16.403 168.274 17 168.274 17.941V26.349C168.274 27.421 168.38 28.113 168.592 28.427C168.804 28.74 169.118 28.897 169.533 28.897Z" fill="#7F5AF0"/>
<path d="M177.073 30.955V16.961C176.851 17.229 176.537 17.436 176.132 17.583C175.727 17.73 175.329 17.804 174.937 17.804V15.854C175.492 15.775 176.02 15.55 176.52 15.178C177.02 14.806 177.4 14.312 177.662 13.699H179.701V30.956L177.073 30.955Z" fill="#7F5AF0"/>
<path d="M189.053 29.926C188.436 30.749 187.444 31.16 186.079 31.16C184.713 31.16 183.722 30.749 183.105 29.926C182.487 29.103 182.179 27.894 182.179 26.3V18.058C182.179 16.543 182.491 15.404 183.115 14.643C183.739 13.882 184.727 13.501 186.079 13.501C187.431 13.501 188.419 13.882 189.043 14.643C189.667 15.404 189.979 16.543 189.979 18.058V26.3C189.98 27.894 189.671 29.103 189.053 29.926ZM186.055 28.897C186.47 28.897 186.79 28.735 187.015 28.412C187.241 28.089 187.353 27.401 187.353 26.349V17.951C187.346 16.677 187.049 15.962 186.461 15.805C186.343 15.779 186.155 15.766 185.898 15.766C185.64 15.766 185.392 15.893 185.153 16.148C184.915 16.403 184.796 17 184.796 17.941V26.349C184.796 27.421 184.902 28.113 185.114 28.427C185.326 28.74 185.64 28.897 186.055 28.897Z" fill="#7F5AF0"/>
<path d="M193.596 30.955V16.961C193.374 17.229 193.06 17.436 192.655 17.583C192.25 17.73 191.852 17.804 191.46 17.804V15.854C192.015 15.775 192.542 15.55 193.042 15.178C193.542 14.806 193.922 14.312 194.184 13.699H196.223V30.956L193.596 30.955Z" fill="#7F5AF0"/>
<path d="M324.035 342.817C326.725 267.854 316.232 255.238 300.229 193.382C292.773 164.565 301.51 131.026 331.055 108.948" stroke="#216D55" stroke-width="2" stroke-miterlimit="10"/>
<path d="M338.282 103.772C338.282 103.772 338.55 103.521 339.016 103.084C339.249 102.863 339.531 102.594 339.853 102.288C340.186 102 340.562 101.675 340.97 101.323C341.79 100.6 342.741 99.762 343.749 98.873C344.254 98.412 344.774 97.939 345.299 97.46C345.835 96.999 346.376 96.534 346.913 96.072C347.988 95.14 349.044 94.186 349.994 93.26C350.469 92.797 350.918 92.341 351.328 91.899C351.742 91.471 352.123 91.076 352.45 90.687C353.761 89.141 354.274 87.871 353.202 87.266C352.304 86.773 350.109 87.483 347.317 89.26C345.922 90.134 344.359 91.153 342.751 92.403C341.153 93.699 339.491 95.128 337.84 96.61C336.204 98.137 334.631 99.852 333.114 101.465C332.346 102.255 331.641 103.129 330.965 103.987C330.298 104.837 329.644 105.67 329.011 106.477C327.737 108.038 326.728 109.705 325.827 111.096C324.946 112.516 324.156 113.665 323.666 114.705C316.79 120.462 310.967 127.484 306.645 135.346C302.298 143.201 299.439 151.817 297.74 160.605L299.669 160.979C301.448 151.855 304.492 142.979 309.115 134.978C310.184 132.925 311.567 131.072 312.854 129.157C313.47 128.178 314.236 127.312 314.958 126.412L317.141 123.726L319.541 121.23C320.352 120.409 321.106 119.53 322.003 118.797C323.759 117.295 325.4 115.658 327.305 114.332C328.543 113.869 329.872 113.45 331.241 113.069C332.67 112.766 334.149 112.51 335.624 112.276C336.357 112.166 337.094 112.055 337.833 111.945L340.102 111.761C341.57 111.642 343.03 111.523 344.453 111.408C347.349 111.312 349.929 111.089 352.124 110.725C354.347 110.398 356.091 109.779 357.169 108.661C359.854 106.123 356.733 105.126 352.857 105.124C350.919 105.105 348.75 105.212 347.151 105.507C345.529 105.756 344.377 105.989 344.377 105.989C344.377 105.989 345.827 105.469 347.988 104.624C350.187 103.856 353.137 102.826 356.145 101.776C362.168 99.686 368.5 97.623 368.973 95.394C369.209 94.296 368.244 93.777 366.416 93.705C365.503 93.669 364.376 93.745 363.082 93.914C361.788 94.082 360.323 94.328 358.773 94.77C352.501 96.26 344.547 99.742 338.282 103.772Z" fill="#216D55"/>
<path d="M302.419 95.566C302.419 95.566 301.848 94.52 300.964 93.031C300.125 91.529 298.795 89.646 297.434 87.915C294.644 84.448 291.437 81.816 290.487 83.473C290.1 84.158 290.672 85.633 291.914 87.56C292.561 88.516 293.2 89.653 294.036 90.847C294.451 91.45 294.88 92.074 295.32 92.714C295.743 93.369 296.177 94.04 296.616 94.718C300.228 100.124 303.942 106.762 305.49 110.107C306.664 124.773 304.617 139.729 299.255 153.446L300.769 154.039C306.519 139.262 308.512 123.124 306.874 107.393C307.096 106.279 307.331 105.102 307.574 103.885C307.852 102.643 308.139 101.359 308.43 100.059C308.896 97.452 309.547 94.67 309.768 92.029C309.907 90.703 310.022 89.395 310.066 88.147C310.063 86.912 310.009 85.731 309.887 84.643C309.681 82.454 309.047 80.687 308.066 79.581C305.716 76.944 305.208 79.96 305.193 83.416C305.145 85.167 305.154 87.071 305.218 88.516C305.251 89.239 305.279 89.854 305.273 90.296C305.28 90.734 305.284 90.991 305.284 90.991C305.284 90.991 305.093 89.654 304.568 87.675C304.319 86.682 304.024 85.517 303.677 84.269C303.271 83.04 302.819 81.725 302.336 80.406C301.886 79.074 301.26 77.797 300.676 76.579C300.071 75.37 299.517 74.214 298.844 73.282C297.555 71.391 296.356 70.147 295.443 70.164C294.529 70.18 294.289 71.095 294.525 72.582C294.757 74.074 295.52 76.116 296.361 78.577C298.166 83.435 300.613 89.825 302.419 95.566Z" fill="#216D55"/>
<path d="M321.737 145.1C321.737 145.1 322.495 144.187 323.609 142.844C324.753 141.513 326.311 139.74 327.932 138.048C331.103 134.617 334.602 131.382 332.777 130.498C332.383 130.304 331.737 130.431 330.886 130.777C330.03 131.112 328.994 131.716 327.859 132.527C325.583 134.14 322.934 136.6 320.592 139.466C318.241 142.333 316.209 145.581 314.748 148.546C313.281 151.517 312.324 154.153 311.828 155.885C302.93 167.191 298.658 181.99 300.112 196.303L301.678 196.143C300.201 181.452 304.904 166.151 314.605 154.991C316.356 153.838 318.553 152.91 320.785 152.147C323.055 151.417 325.373 150.864 327.537 150.456C331.857 149.582 335.416 149.251 336.872 147.457C337.768 146.419 337.657 145.725 336.92 145.303C336.179 144.862 334.828 144.743 333.319 144.816C331.824 144.909 330.178 145.203 328.932 145.539C328.302 145.693 327.766 145.844 327.4 145.974C327.029 146.1 326.812 146.174 326.812 146.174C326.812 146.174 331.053 143.844 335.665 142.031C340.226 140.065 345.179 138.756 345.677 137.026C345.918 136.161 345.186 135.695 343.711 135.547C342.239 135.391 340.056 135.673 337.52 136.335C334.999 137.038 332.152 138.183 329.397 139.704C326.64 141.222 323.969 143.092 321.737 145.1Z" fill="#216D55"/>
<path d="M281.15 131.879C281.15 131.879 281.089 131.552 281.024 130.979C280.954 130.406 280.825 129.578 280.771 128.582C280.612 126.586 280.571 123.867 280.876 121.117C281.143 118.366 281.77 115.591 282.139 113.51C282.54 111.455 282.559 110.046 281.324 110.249C280.817 110.34 280.141 110.927 279.383 111.912C278.682 112.914 277.903 114.313 277.284 116.008C275.991 119.389 275.377 123.914 275.77 128.392C275.877 129.514 276.023 130.632 276.246 131.734L276.605 133.369C276.748 133.893 276.915 134.397 277.072 134.901C277.665 136.894 278.484 138.831 279.334 140.524C281.061 143.961 283.199 146.305 284.525 147.749C286.019 151.427 287.777 154.956 289.31 158.582C290.886 162.19 292.212 165.896 293.435 169.635C295.815 177.139 297.534 184.84 298.939 192.591L300.65 192.289C299.152 184.033 297.325 175.803 294.662 167.79C293.34 163.784 291.781 159.848 290.082 156C288.397 152.148 286.506 148.424 285.223 144.616C285.192 142.31 285.576 139.847 286.507 137.518C286.88 136.376 287.509 135.2 288.015 134.118C288.571 133.053 289.196 132.139 289.819 131.263C291.078 129.528 292.373 128.153 293.31 127.025C293.756 126.441 294.18 125.96 294.412 125.444C294.706 124.983 294.795 124.451 294.812 123.974C294.793 122.767 294.306 122.19 293.435 122.118C293.008 122.091 292.493 122.198 291.912 122.412C291.35 122.642 290.746 123.003 290.135 123.443C288.95 124.345 287.801 125.624 287.05 126.732C286.638 127.272 286.388 127.782 286.167 128.133C285.96 128.489 285.845 128.703 285.845 128.703C285.845 128.703 285.953 128.404 286.135 127.881C286.227 127.621 286.338 127.304 286.466 126.94C286.612 126.585 286.777 126.183 286.957 125.743C287.7 124.003 288.877 121.771 290.351 119.772C291.833 117.773 293.593 116.075 295.084 114.805C295.454 114.478 295.797 114.158 296.135 113.899C296.466 113.629 296.747 113.324 297.007 113.077C297.529 112.592 297.87 112.088 297.933 111.598C298.067 110.62 297.257 110.185 295.567 110.289C293.931 110.467 291.493 111.411 289.165 113.374C286.807 115.297 284.71 118.229 283.291 121.523C281.873 124.825 281.169 128.498 281.15 131.879Z" fill="#216D55"/>
<path d="M327.683 89.879C327.683 89.879 327.57 89.131 327.367 88.048C327.19 86.967 326.818 85.548 326.392 84.209C325.506 81.515 324.207 79.197 323.266 79.97C322.457 80.617 323.48 84.032 324.405 88.107C325.376 92.153 326.206 96.917 326.453 99.245C324.137 108.302 320.057 116.919 314.408 124.375L315.231 124.999C321.287 116.983 325.566 107.671 327.845 97.903C328.565 96.666 329.382 95.285 330.313 93.846C331.151 92.393 332.125 90.878 332.836 89.363C333.207 88.608 333.56 87.86 333.858 87.133C334.129 86.404 334.359 85.696 334.527 85.029C334.886 83.695 334.91 82.517 334.578 81.649C333.779 79.575 332.796 81.228 332.008 83.267C331.589 84.291 331.174 85.42 330.891 86.291C330.75 86.727 330.631 87.098 330.532 87.359C330.441 87.621 330.388 87.774 330.388 87.774C330.388 87.774 330.562 86.937 330.691 85.648C330.756 85.002 330.833 84.247 330.916 83.432C330.952 82.614 330.98 81.735 330.992 80.847C331.023 79.959 330.949 79.063 330.883 78.211C330.804 77.36 330.738 76.551 330.561 75.847C330.243 74.435 329.827 73.423 329.284 73.218C328.74 73.012 328.384 73.493 328.175 74.427C327.963 75.362 327.932 76.749 327.869 78.402C327.819 81.702 327.843 86.056 327.683 89.879Z" fill="#216D55"/>
<path d="M334.661 167.235C334.661 167.235 335.502 166.067 336.737 164.35C338.005 162.642 339.728 160.363 341.514 158.164C345.005 153.723 348.83 149.446 346.541 148.568C346.048 148.375 345.287 148.592 344.306 149.095C343.817 149.349 343.272 149.672 342.691 150.07C342.119 150.484 341.507 150.965 340.864 151.5C338.302 153.661 335.364 156.863 332.798 160.511C330.221 164.16 328.023 168.228 326.46 171.908C324.891 175.596 323.886 178.844 323.374 180.97C313.182 195.149 308.224 212.967 309.581 230.376L311.487 230.226C310.11 212.306 315.559 193.861 326.696 179.729C328.759 178.227 331.366 176.951 334.031 175.858C336.741 174.8 339.526 173.937 342.135 173.243C347.337 171.793 351.677 170.995 353.29 168.656C354.286 167.293 354.078 166.466 353.137 166.036C352.669 165.824 352.008 165.694 351.245 165.669C350.488 165.653 349.615 165.717 348.697 165.833C346.884 166.099 344.911 166.618 343.426 167.142C342.674 167.389 342.037 167.622 341.602 167.812C341.162 167.998 340.904 168.107 340.904 168.107C340.904 168.107 345.86 164.908 351.274 162.21C356.615 159.346 362.466 157.124 362.847 154.971C363.028 153.897 362.081 153.425 360.284 153.432C358.488 153.429 355.889 154.029 352.904 155.115C349.94 156.245 346.627 157.926 343.445 160.029C340.262 162.13 337.202 164.627 334.661 167.235Z" fill="#216D55"/>
<path d="M280.902 189.548C280.902 189.548 280.065 189.286 278.837 188.952C277.629 188.584 275.961 188.281 274.36 188.074C271.116 187.697 268.101 188.006 268.461 189.361C268.612 189.917 269.66 190.388 271.291 190.743C272.117 190.901 273.028 191.172 274.073 191.363C274.597 191.465 275.14 191.57 275.697 191.678C276.252 191.806 276.82 191.936 277.396 192.069C282.044 193.061 287.381 194.734 289.892 195.765C297.882 203.071 304.124 212.34 307.606 222.609L308.74 222.225C304.963 211.152 298.079 201.245 289.272 193.609C288.83 192.901 288.361 192.151 287.875 191.372C287.394 190.567 286.896 189.733 286.391 188.886C285.308 187.26 284.235 185.434 282.987 183.919C282.376 183.143 281.762 182.387 281.14 181.7C280.497 181.048 279.854 180.45 279.223 179.937C277.976 178.881 276.713 178.28 275.618 178.206C273.002 178.035 274.321 179.885 276.112 181.705C276.997 182.652 277.986 183.654 278.767 184.383C279.158 184.747 279.49 185.058 279.713 185.296C279.942 185.525 280.076 185.659 280.076 185.659C280.076 185.659 279.289 185.045 277.988 184.274C277.343 183.878 276.586 183.415 275.757 182.936C274.905 182.502 273.983 182.047 273.044 181.605C272.116 181.137 271.119 180.802 270.177 180.471C269.228 180.158 268.335 179.84 267.494 179.715C265.829 179.413 264.554 179.401 264.093 179.89C263.631 180.379 263.991 180.977 264.893 181.622C265.796 182.271 267.26 182.918 268.976 183.761C272.444 185.338 277.02 187.421 280.902 189.548Z" fill="#216D55"/>
<path d="M336.663 208.849C336.663 208.849 337.23 207.63 338.064 205.839C338.921 204.047 340.082 201.652 341.283 199.307C343.616 194.597 346.145 189.942 343.893 189.597C343.409 189.521 342.767 189.863 341.987 190.509C341.2 191.146 340.309 192.123 339.371 193.348C337.489 195.791 335.448 199.232 333.765 202.999C332.073 206.769 330.742 210.843 329.877 214.463C329.008 218.09 328.545 221.235 328.356 223.273C320.848 237.795 317.778 254.556 319.623 270.799L321.403 270.596C319.512 253.797 322.947 236.388 331.263 221.656C332.967 219.966 335.187 218.379 337.494 216.927C339.84 215.497 342.288 214.209 344.595 213.081C349.185 210.777 353.092 209.11 354.152 206.607C354.816 205.132 354.458 204.418 353.501 204.223C352.534 204.013 350.997 204.36 349.353 204.956C347.726 205.565 346.003 206.43 344.725 207.191C344.076 207.562 343.531 207.896 343.161 208.151C342.788 208.403 342.568 208.551 342.568 208.551C342.568 208.551 346.585 204.703 351.021 201.097C355.372 197.376 360.224 193.983 360.075 191.941C359.962 189.934 356.027 191.001 351.049 194.27C348.59 195.921 345.914 198.121 343.408 200.652C340.903 203.18 338.555 206.021 336.663 208.849Z" fill="#216D55"/>
<path d="M355.969 245.519C355.969 245.519 356.47 244.002 357.009 241.739C357.548 239.477 358.101 236.473 358.248 233.577C358.421 230.679 358.14 227.913 357.491 226.06C356.856 224.195 355.864 223.232 354.721 223.604C353.732 223.924 353.329 225.66 352.923 228.416C352.527 231.165 352.069 234.989 351.231 239.224C349.653 247.654 346.513 257.783 345.248 262.574C339.293 270.554 333.293 278.683 329.263 287.916C327.244 292.507 325.716 297.341 324.943 302.318C324.576 304.806 324.356 307.325 324.417 309.848C324.482 312.369 324.773 314.884 325.304 317.354L327.448 316.872C326.393 311.969 326.344 306.837 327.252 301.831C328.108 296.814 329.8 291.925 331.967 287.258C336.341 277.913 342.77 269.57 349.081 261.118C353.867 257.495 360.677 253.863 366.41 249.157C369.262 246.836 371.815 244.303 373.627 241.731C375.436 239.162 376.548 236.617 376.529 234.43C376.539 231.837 375.633 231.295 374.479 231.923C373.289 232.533 371.731 234.221 370.089 236.046C366.831 239.738 363.096 243.853 363.096 243.853C363.096 243.853 364.144 242.341 365.548 239.891C366.948 237.444 368.656 234.005 369.881 230.239C371.126 226.489 371.842 222.416 371.759 219.153C371.757 218.34 371.699 217.579 371.583 216.885C371.473 216.192 371.368 215.573 371.182 215.038C370.815 213.966 370.359 213.247 369.801 212.972C368.684 212.427 367.848 213.425 367.233 215.313C366.543 217.209 365.944 220.021 365.008 223.309C364.095 226.6 362.843 230.367 361.255 234.193C359.701 238.028 357.812 241.912 355.969 245.519Z" fill="#216D55"/>
<path d="M290.423 241.805C290.423 241.805 289.347 240.93 287.765 239.645C286.182 238.342 284.058 236.609 281.974 234.823C280.905 233.922 279.853 233.036 278.891 232.225C277.885 231.42 276.97 230.659 276.143 230.079C274.47 228.94 273.229 228.455 272.769 229.594C272.573 230.077 272.765 230.831 273.229 231.823C273.682 232.827 274.471 233.995 275.483 235.275C277.515 237.829 280.513 240.691 283.828 243.25C290.471 248.391 298.208 252.527 301.882 254.608C307.247 261.102 312.428 267.797 316.426 275.198C318.417 278.893 320.097 282.762 321.246 286.792C322.397 290.816 322.999 295.003 322.875 299.185L324.733 299.241C324.861 294.597 324.143 289.963 322.814 285.563C321.488 281.155 319.576 276.97 317.347 273.007C312.882 265.068 307.144 258.029 301.452 251.167C299.439 246.513 297.903 240.23 296.709 234.908C295.441 229.557 294.7 225.285 292.509 223.685C291.234 222.708 290.425 222.882 289.971 223.775C289.491 224.67 289.454 226.272 289.63 228.061C290.01 231.624 291.615 235.781 291.615 235.781C291.615 235.781 290.879 234.521 289.836 232.599C289.284 231.651 288.734 230.507 288.075 229.307C287.486 228.081 286.786 226.796 286.194 225.466C285.54 224.156 284.991 222.805 284.387 221.544C283.879 220.257 283.272 219.067 282.824 217.986C282.582 217.45 282.334 216.952 282.082 216.502C281.84 216.05 281.631 215.638 281.393 215.289C280.927 214.589 280.434 214.121 279.922 213.984C278.897 213.706 278.351 214.561 278.197 216.313C278.03 218.061 278.443 220.651 279.366 223.624C280.331 226.579 281.895 229.857 283.845 233.002C285.793 236.151 288.104 239.174 290.423 241.805Z" fill="#216D55"/>
<path d="M343.013 397.589H308.062C299.353 397.589 292.165 390.779 291.695 382.083L286.491 285.803C286.248 281.298 289.835 277.512 294.346 277.512H356.726C361.238 277.512 364.825 281.298 364.581 285.803L359.377 382.083C358.909 390.778 351.721 397.589 343.013 397.589Z" fill="#8E3948"/>
</g>
<defs>
<clipPath id="clip0_7_33">
<rect width="377" height="398" fill="white"/>
</clipPath>
</defs>
</svg>
